M48
; DRILL file {KiCad 8.0.6} date 2025-05-13T17:33:19-0400
; FORMAT={-:-/ absolute / metric / decimal}
; #@! TF.CreationDate,2025-05-13T17:33:19-04:00
; #@! TF.GenerationSoftware,Kicad,Pcbnew,8.0.6
; #@! TF.FileFunction,Plated,1,2,PTH
FMAT,2
METRIC
; #@! TA.AperFunction,Plated,PTH,ViaDrill
T1C0.300
; #@! TA.AperFunction,Plated,PTH,ComponentDrill
T2C0.600
; #@! TA.AperFunction,Plated,PTH,ComponentDrill
T3C1.000
%
G90
G05
T1
X27.838Y-46.406
X29.312Y-39.929
X29.769Y-43.129
X31.496Y-48.412
X33.071Y-56.058
X34.544Y-46.685
X35.89Y-48.768
X36.957Y-53.365
X37.744Y-50.292
X39.472Y-38.684
X40.64Y-51.994
X40.945Y-48.158
X43.586Y-60.376
X43.84Y-48.353
X45.11Y-49.835
X45.39Y-56.54
X47.219Y-68.047
X47.442Y-49.281
X48.057Y-55.702
X48.311Y-50.47
X48.819Y-61.011
X49.783Y-51.029
X50.216Y-58.928
X51.381Y-50.93
X51.816Y-33.147
X52.07Y-31.902
X53.289Y-50.521
X57.836Y-52.349
T3
X27.518Y-72.339
X30.058Y-72.339
X32.598Y-72.339
X35.138Y-72.339
T2
G00X27.958Y-44.868
M15
G01X27.358Y-44.868
M16
G05
G00X27.958Y-53.508
M15
G01X27.358Y-53.508
M16
G05
G00X32.388Y-44.868
M15
G01X31.288Y-44.868
M16
G05
G00X32.388Y-53.508
M15
G01X31.288Y-53.508
M16
G05
M30
