%TF.GenerationSoftware,KiCad,Pcbnew,8.0.6*%
%TF.CreationDate,2025-05-13T17:33:18-04:00*%
%TF.ProjectId,USB-Voltage-Tester,5553422d-566f-46c7-9461-67652d546573,rev?*%
%TF.SameCoordinates,Original*%
%TF.FileFunction,Drillmap*%
%TF.FilePolarity,Positive*%
%FSLAX45Y45*%
G04 Gerber Fmt 4.5, Leading zero omitted, Abs format (unit mm)*
G04 Created by KiCad (PCBNEW 8.0.6) date 2025-05-13 17:33:18*
%MOMM*%
%LPD*%
G01*
G04 APERTURE LIST*
%ADD10C,0.050000*%
%ADD11C,0.200000*%
%ADD12C,0.100000*%
G04 APERTURE END LIST*
D10*
X2189480Y-2651760D02*
X6464300Y-2651760D01*
X6464300Y-7734300D01*
X2189480Y-7734300D01*
X2189480Y-2651760D01*
D11*
D12*
X3098340Y-4597280D02*
X3163340Y-4662280D01*
X3163340Y-4597280D02*
X3098340Y-4662280D01*
X3098340Y-5175280D02*
X3163340Y-5240280D01*
X3163340Y-5175280D02*
X3098340Y-5240280D01*
D11*
X2447757Y-8048284D02*
X2447757Y-7848284D01*
X2447757Y-7848284D02*
X2495376Y-7848284D01*
X2495376Y-7848284D02*
X2523947Y-7857808D01*
X2523947Y-7857808D02*
X2542995Y-7876855D01*
X2542995Y-7876855D02*
X2552519Y-7895903D01*
X2552519Y-7895903D02*
X2562043Y-7933998D01*
X2562043Y-7933998D02*
X2562043Y-7962569D01*
X2562043Y-7962569D02*
X2552519Y-8000665D01*
X2552519Y-8000665D02*
X2542995Y-8019712D01*
X2542995Y-8019712D02*
X2523947Y-8038760D01*
X2523947Y-8038760D02*
X2495376Y-8048284D01*
X2495376Y-8048284D02*
X2447757Y-8048284D01*
X2647757Y-8048284D02*
X2647757Y-7914950D01*
X2647757Y-7953046D02*
X2657281Y-7933998D01*
X2657281Y-7933998D02*
X2666804Y-7924474D01*
X2666804Y-7924474D02*
X2685852Y-7914950D01*
X2685852Y-7914950D02*
X2704900Y-7914950D01*
X2771566Y-8048284D02*
X2771566Y-7914950D01*
X2771566Y-7848284D02*
X2762043Y-7857808D01*
X2762043Y-7857808D02*
X2771566Y-7867331D01*
X2771566Y-7867331D02*
X2781090Y-7857808D01*
X2781090Y-7857808D02*
X2771566Y-7848284D01*
X2771566Y-7848284D02*
X2771566Y-7867331D01*
X2895376Y-8048284D02*
X2876328Y-8038760D01*
X2876328Y-8038760D02*
X2866804Y-8019712D01*
X2866804Y-8019712D02*
X2866804Y-7848284D01*
X3000138Y-8048284D02*
X2981090Y-8038760D01*
X2981090Y-8038760D02*
X2971566Y-8019712D01*
X2971566Y-8019712D02*
X2971566Y-7848284D01*
X3228709Y-8048284D02*
X3228709Y-7848284D01*
X3228709Y-7848284D02*
X3295376Y-7991141D01*
X3295376Y-7991141D02*
X3362042Y-7848284D01*
X3362042Y-7848284D02*
X3362042Y-8048284D01*
X3542995Y-8048284D02*
X3542995Y-7943522D01*
X3542995Y-7943522D02*
X3533471Y-7924474D01*
X3533471Y-7924474D02*
X3514423Y-7914950D01*
X3514423Y-7914950D02*
X3476328Y-7914950D01*
X3476328Y-7914950D02*
X3457281Y-7924474D01*
X3542995Y-8038760D02*
X3523947Y-8048284D01*
X3523947Y-8048284D02*
X3476328Y-8048284D01*
X3476328Y-8048284D02*
X3457281Y-8038760D01*
X3457281Y-8038760D02*
X3447757Y-8019712D01*
X3447757Y-8019712D02*
X3447757Y-8000665D01*
X3447757Y-8000665D02*
X3457281Y-7981617D01*
X3457281Y-7981617D02*
X3476328Y-7972093D01*
X3476328Y-7972093D02*
X3523947Y-7972093D01*
X3523947Y-7972093D02*
X3542995Y-7962569D01*
X3638233Y-7914950D02*
X3638233Y-8114950D01*
X3638233Y-7924474D02*
X3657281Y-7914950D01*
X3657281Y-7914950D02*
X3695376Y-7914950D01*
X3695376Y-7914950D02*
X3714423Y-7924474D01*
X3714423Y-7924474D02*
X3723947Y-7933998D01*
X3723947Y-7933998D02*
X3733471Y-7953046D01*
X3733471Y-7953046D02*
X3733471Y-8010188D01*
X3733471Y-8010188D02*
X3723947Y-8029236D01*
X3723947Y-8029236D02*
X3714423Y-8038760D01*
X3714423Y-8038760D02*
X3695376Y-8048284D01*
X3695376Y-8048284D02*
X3657281Y-8048284D01*
X3657281Y-8048284D02*
X3638233Y-8038760D01*
X3819185Y-8029236D02*
X3828709Y-8038760D01*
X3828709Y-8038760D02*
X3819185Y-8048284D01*
X3819185Y-8048284D02*
X3809662Y-8038760D01*
X3809662Y-8038760D02*
X3819185Y-8029236D01*
X3819185Y-8029236D02*
X3819185Y-8048284D01*
X3819185Y-7924474D02*
X3828709Y-7933998D01*
X3828709Y-7933998D02*
X3819185Y-7943522D01*
X3819185Y-7943522D02*
X3809662Y-7933998D01*
X3809662Y-7933998D02*
X3819185Y-7924474D01*
X3819185Y-7924474D02*
X3819185Y-7943522D01*
D12*
X2121980Y-8344300D02*
X2186980Y-8409300D01*
X2186980Y-8344300D02*
X2121980Y-8409300D01*
D11*
X2485852Y-8268284D02*
X2504900Y-8268284D01*
X2504900Y-8268284D02*
X2523947Y-8277808D01*
X2523947Y-8277808D02*
X2533471Y-8287331D01*
X2533471Y-8287331D02*
X2542995Y-8306379D01*
X2542995Y-8306379D02*
X2552519Y-8344474D01*
X2552519Y-8344474D02*
X2552519Y-8392093D01*
X2552519Y-8392093D02*
X2542995Y-8430189D01*
X2542995Y-8430189D02*
X2533471Y-8449236D01*
X2533471Y-8449236D02*
X2523947Y-8458760D01*
X2523947Y-8458760D02*
X2504900Y-8468284D01*
X2504900Y-8468284D02*
X2485852Y-8468284D01*
X2485852Y-8468284D02*
X2466804Y-8458760D01*
X2466804Y-8458760D02*
X2457281Y-8449236D01*
X2457281Y-8449236D02*
X2447757Y-8430189D01*
X2447757Y-8430189D02*
X2438233Y-8392093D01*
X2438233Y-8392093D02*
X2438233Y-8344474D01*
X2438233Y-8344474D02*
X2447757Y-8306379D01*
X2447757Y-8306379D02*
X2457281Y-8287331D01*
X2457281Y-8287331D02*
X2466804Y-8277808D01*
X2466804Y-8277808D02*
X2485852Y-8268284D01*
X2638233Y-8449236D02*
X2647757Y-8458760D01*
X2647757Y-8458760D02*
X2638233Y-8468284D01*
X2638233Y-8468284D02*
X2628709Y-8458760D01*
X2628709Y-8458760D02*
X2638233Y-8449236D01*
X2638233Y-8449236D02*
X2638233Y-8468284D01*
X2819185Y-8268284D02*
X2781090Y-8268284D01*
X2781090Y-8268284D02*
X2762043Y-8277808D01*
X2762043Y-8277808D02*
X2752519Y-8287331D01*
X2752519Y-8287331D02*
X2733471Y-8315903D01*
X2733471Y-8315903D02*
X2723947Y-8353998D01*
X2723947Y-8353998D02*
X2723947Y-8430189D01*
X2723947Y-8430189D02*
X2733471Y-8449236D01*
X2733471Y-8449236D02*
X2742995Y-8458760D01*
X2742995Y-8458760D02*
X2762043Y-8468284D01*
X2762043Y-8468284D02*
X2800138Y-8468284D01*
X2800138Y-8468284D02*
X2819185Y-8458760D01*
X2819185Y-8458760D02*
X2828709Y-8449236D01*
X2828709Y-8449236D02*
X2838233Y-8430189D01*
X2838233Y-8430189D02*
X2838233Y-8382569D01*
X2838233Y-8382569D02*
X2828709Y-8363522D01*
X2828709Y-8363522D02*
X2819185Y-8353998D01*
X2819185Y-8353998D02*
X2800138Y-8344474D01*
X2800138Y-8344474D02*
X2762043Y-8344474D01*
X2762043Y-8344474D02*
X2742995Y-8353998D01*
X2742995Y-8353998D02*
X2733471Y-8363522D01*
X2733471Y-8363522D02*
X2723947Y-8382569D01*
X3019185Y-8268284D02*
X2923947Y-8268284D01*
X2923947Y-8268284D02*
X2914423Y-8363522D01*
X2914423Y-8363522D02*
X2923947Y-8353998D01*
X2923947Y-8353998D02*
X2942995Y-8344474D01*
X2942995Y-8344474D02*
X2990614Y-8344474D01*
X2990614Y-8344474D02*
X3009662Y-8353998D01*
X3009662Y-8353998D02*
X3019185Y-8363522D01*
X3019185Y-8363522D02*
X3028709Y-8382569D01*
X3028709Y-8382569D02*
X3028709Y-8430189D01*
X3028709Y-8430189D02*
X3019185Y-8449236D01*
X3019185Y-8449236D02*
X3009662Y-8458760D01*
X3009662Y-8458760D02*
X2990614Y-8468284D01*
X2990614Y-8468284D02*
X2942995Y-8468284D01*
X2942995Y-8468284D02*
X2923947Y-8458760D01*
X2923947Y-8458760D02*
X2914423Y-8449236D01*
X3152519Y-8268284D02*
X3171566Y-8268284D01*
X3171566Y-8268284D02*
X3190614Y-8277808D01*
X3190614Y-8277808D02*
X3200138Y-8287331D01*
X3200138Y-8287331D02*
X3209662Y-8306379D01*
X3209662Y-8306379D02*
X3219185Y-8344474D01*
X3219185Y-8344474D02*
X3219185Y-8392093D01*
X3219185Y-8392093D02*
X3209662Y-8430189D01*
X3209662Y-8430189D02*
X3200138Y-8449236D01*
X3200138Y-8449236D02*
X3190614Y-8458760D01*
X3190614Y-8458760D02*
X3171566Y-8468284D01*
X3171566Y-8468284D02*
X3152519Y-8468284D01*
X3152519Y-8468284D02*
X3133471Y-8458760D01*
X3133471Y-8458760D02*
X3123947Y-8449236D01*
X3123947Y-8449236D02*
X3114423Y-8430189D01*
X3114423Y-8430189D02*
X3104900Y-8392093D01*
X3104900Y-8392093D02*
X3104900Y-8344474D01*
X3104900Y-8344474D02*
X3114423Y-8306379D01*
X3114423Y-8306379D02*
X3123947Y-8287331D01*
X3123947Y-8287331D02*
X3133471Y-8277808D01*
X3133471Y-8277808D02*
X3152519Y-8268284D01*
X3304900Y-8468284D02*
X3304900Y-8334950D01*
X3304900Y-8353998D02*
X3314423Y-8344474D01*
X3314423Y-8344474D02*
X3333471Y-8334950D01*
X3333471Y-8334950D02*
X3362043Y-8334950D01*
X3362043Y-8334950D02*
X3381090Y-8344474D01*
X3381090Y-8344474D02*
X3390614Y-8363522D01*
X3390614Y-8363522D02*
X3390614Y-8468284D01*
X3390614Y-8363522D02*
X3400138Y-8344474D01*
X3400138Y-8344474D02*
X3419185Y-8334950D01*
X3419185Y-8334950D02*
X3447757Y-8334950D01*
X3447757Y-8334950D02*
X3466804Y-8344474D01*
X3466804Y-8344474D02*
X3476328Y-8363522D01*
X3476328Y-8363522D02*
X3476328Y-8468284D01*
X3571566Y-8468284D02*
X3571566Y-8334950D01*
X3571566Y-8353998D02*
X3581090Y-8344474D01*
X3581090Y-8344474D02*
X3600138Y-8334950D01*
X3600138Y-8334950D02*
X3628709Y-8334950D01*
X3628709Y-8334950D02*
X3647757Y-8344474D01*
X3647757Y-8344474D02*
X3657281Y-8363522D01*
X3657281Y-8363522D02*
X3657281Y-8468284D01*
X3657281Y-8363522D02*
X3666804Y-8344474D01*
X3666804Y-8344474D02*
X3685852Y-8334950D01*
X3685852Y-8334950D02*
X3714423Y-8334950D01*
X3714423Y-8334950D02*
X3733471Y-8344474D01*
X3733471Y-8344474D02*
X3742995Y-8363522D01*
X3742995Y-8363522D02*
X3742995Y-8468284D01*
X4133471Y-8258760D02*
X3962043Y-8515903D01*
X4390614Y-8268284D02*
X4409662Y-8268284D01*
X4409662Y-8268284D02*
X4428709Y-8277808D01*
X4428709Y-8277808D02*
X4438233Y-8287331D01*
X4438233Y-8287331D02*
X4447757Y-8306379D01*
X4447757Y-8306379D02*
X4457281Y-8344474D01*
X4457281Y-8344474D02*
X4457281Y-8392093D01*
X4457281Y-8392093D02*
X4447757Y-8430189D01*
X4447757Y-8430189D02*
X4438233Y-8449236D01*
X4438233Y-8449236D02*
X4428709Y-8458760D01*
X4428709Y-8458760D02*
X4409662Y-8468284D01*
X4409662Y-8468284D02*
X4390614Y-8468284D01*
X4390614Y-8468284D02*
X4371567Y-8458760D01*
X4371567Y-8458760D02*
X4362043Y-8449236D01*
X4362043Y-8449236D02*
X4352519Y-8430189D01*
X4352519Y-8430189D02*
X4342995Y-8392093D01*
X4342995Y-8392093D02*
X4342995Y-8344474D01*
X4342995Y-8344474D02*
X4352519Y-8306379D01*
X4352519Y-8306379D02*
X4362043Y-8287331D01*
X4362043Y-8287331D02*
X4371567Y-8277808D01*
X4371567Y-8277808D02*
X4390614Y-8268284D01*
X4542995Y-8449236D02*
X4552519Y-8458760D01*
X4552519Y-8458760D02*
X4542995Y-8468284D01*
X4542995Y-8468284D02*
X4533471Y-8458760D01*
X4533471Y-8458760D02*
X4542995Y-8449236D01*
X4542995Y-8449236D02*
X4542995Y-8468284D01*
X4676328Y-8268284D02*
X4695376Y-8268284D01*
X4695376Y-8268284D02*
X4714424Y-8277808D01*
X4714424Y-8277808D02*
X4723948Y-8287331D01*
X4723948Y-8287331D02*
X4733471Y-8306379D01*
X4733471Y-8306379D02*
X4742995Y-8344474D01*
X4742995Y-8344474D02*
X4742995Y-8392093D01*
X4742995Y-8392093D02*
X4733471Y-8430189D01*
X4733471Y-8430189D02*
X4723948Y-8449236D01*
X4723948Y-8449236D02*
X4714424Y-8458760D01*
X4714424Y-8458760D02*
X4695376Y-8468284D01*
X4695376Y-8468284D02*
X4676328Y-8468284D01*
X4676328Y-8468284D02*
X4657281Y-8458760D01*
X4657281Y-8458760D02*
X4647757Y-8449236D01*
X4647757Y-8449236D02*
X4638233Y-8430189D01*
X4638233Y-8430189D02*
X4628709Y-8392093D01*
X4628709Y-8392093D02*
X4628709Y-8344474D01*
X4628709Y-8344474D02*
X4638233Y-8306379D01*
X4638233Y-8306379D02*
X4647757Y-8287331D01*
X4647757Y-8287331D02*
X4657281Y-8277808D01*
X4657281Y-8277808D02*
X4676328Y-8268284D01*
X4819186Y-8287331D02*
X4828709Y-8277808D01*
X4828709Y-8277808D02*
X4847757Y-8268284D01*
X4847757Y-8268284D02*
X4895376Y-8268284D01*
X4895376Y-8268284D02*
X4914424Y-8277808D01*
X4914424Y-8277808D02*
X4923948Y-8287331D01*
X4923948Y-8287331D02*
X4933471Y-8306379D01*
X4933471Y-8306379D02*
X4933471Y-8325427D01*
X4933471Y-8325427D02*
X4923948Y-8353998D01*
X4923948Y-8353998D02*
X4809662Y-8468284D01*
X4809662Y-8468284D02*
X4933471Y-8468284D01*
X5114424Y-8268284D02*
X5019186Y-8268284D01*
X5019186Y-8268284D02*
X5009662Y-8363522D01*
X5009662Y-8363522D02*
X5019186Y-8353998D01*
X5019186Y-8353998D02*
X5038233Y-8344474D01*
X5038233Y-8344474D02*
X5085852Y-8344474D01*
X5085852Y-8344474D02*
X5104900Y-8353998D01*
X5104900Y-8353998D02*
X5114424Y-8363522D01*
X5114424Y-8363522D02*
X5123948Y-8382569D01*
X5123948Y-8382569D02*
X5123948Y-8430189D01*
X5123948Y-8430189D02*
X5114424Y-8449236D01*
X5114424Y-8449236D02*
X5104900Y-8458760D01*
X5104900Y-8458760D02*
X5085852Y-8468284D01*
X5085852Y-8468284D02*
X5038233Y-8468284D01*
X5038233Y-8468284D02*
X5019186Y-8458760D01*
X5019186Y-8458760D02*
X5009662Y-8449236D01*
X5295376Y-8268284D02*
X5257281Y-8268284D01*
X5257281Y-8268284D02*
X5238233Y-8277808D01*
X5238233Y-8277808D02*
X5228709Y-8287331D01*
X5228709Y-8287331D02*
X5209662Y-8315903D01*
X5209662Y-8315903D02*
X5200138Y-8353998D01*
X5200138Y-8353998D02*
X5200138Y-8430189D01*
X5200138Y-8430189D02*
X5209662Y-8449236D01*
X5209662Y-8449236D02*
X5219186Y-8458760D01*
X5219186Y-8458760D02*
X5238233Y-8468284D01*
X5238233Y-8468284D02*
X5276329Y-8468284D01*
X5276329Y-8468284D02*
X5295376Y-8458760D01*
X5295376Y-8458760D02*
X5304900Y-8449236D01*
X5304900Y-8449236D02*
X5314424Y-8430189D01*
X5314424Y-8430189D02*
X5314424Y-8382569D01*
X5314424Y-8382569D02*
X5304900Y-8363522D01*
X5304900Y-8363522D02*
X5295376Y-8353998D01*
X5295376Y-8353998D02*
X5276329Y-8344474D01*
X5276329Y-8344474D02*
X5238233Y-8344474D01*
X5238233Y-8344474D02*
X5219186Y-8353998D01*
X5219186Y-8353998D02*
X5209662Y-8363522D01*
X5209662Y-8363522D02*
X5200138Y-8382569D01*
X5390614Y-8268284D02*
X5390614Y-8306379D01*
X5466805Y-8268284D02*
X5466805Y-8306379D01*
X5762043Y-8544474D02*
X5752519Y-8534950D01*
X5752519Y-8534950D02*
X5733471Y-8506379D01*
X5733471Y-8506379D02*
X5723948Y-8487331D01*
X5723948Y-8487331D02*
X5714424Y-8458760D01*
X5714424Y-8458760D02*
X5704900Y-8411141D01*
X5704900Y-8411141D02*
X5704900Y-8373046D01*
X5704900Y-8373046D02*
X5714424Y-8325427D01*
X5714424Y-8325427D02*
X5723948Y-8296855D01*
X5723948Y-8296855D02*
X5733471Y-8277808D01*
X5733471Y-8277808D02*
X5752519Y-8249236D01*
X5752519Y-8249236D02*
X5762043Y-8239712D01*
X5828709Y-8287331D02*
X5838233Y-8277808D01*
X5838233Y-8277808D02*
X5857281Y-8268284D01*
X5857281Y-8268284D02*
X5904900Y-8268284D01*
X5904900Y-8268284D02*
X5923948Y-8277808D01*
X5923948Y-8277808D02*
X5933471Y-8287331D01*
X5933471Y-8287331D02*
X5942995Y-8306379D01*
X5942995Y-8306379D02*
X5942995Y-8325427D01*
X5942995Y-8325427D02*
X5933471Y-8353998D01*
X5933471Y-8353998D02*
X5819186Y-8468284D01*
X5819186Y-8468284D02*
X5942995Y-8468284D01*
X6181090Y-8468284D02*
X6181090Y-8268284D01*
X6266805Y-8468284D02*
X6266805Y-8363522D01*
X6266805Y-8363522D02*
X6257281Y-8344474D01*
X6257281Y-8344474D02*
X6238233Y-8334950D01*
X6238233Y-8334950D02*
X6209662Y-8334950D01*
X6209662Y-8334950D02*
X6190614Y-8344474D01*
X6190614Y-8344474D02*
X6181090Y-8353998D01*
X6390614Y-8468284D02*
X6371567Y-8458760D01*
X6371567Y-8458760D02*
X6362043Y-8449236D01*
X6362043Y-8449236D02*
X6352519Y-8430189D01*
X6352519Y-8430189D02*
X6352519Y-8373046D01*
X6352519Y-8373046D02*
X6362043Y-8353998D01*
X6362043Y-8353998D02*
X6371567Y-8344474D01*
X6371567Y-8344474D02*
X6390614Y-8334950D01*
X6390614Y-8334950D02*
X6419186Y-8334950D01*
X6419186Y-8334950D02*
X6438233Y-8344474D01*
X6438233Y-8344474D02*
X6447757Y-8353998D01*
X6447757Y-8353998D02*
X6457281Y-8373046D01*
X6457281Y-8373046D02*
X6457281Y-8430189D01*
X6457281Y-8430189D02*
X6447757Y-8449236D01*
X6447757Y-8449236D02*
X6438233Y-8458760D01*
X6438233Y-8458760D02*
X6419186Y-8468284D01*
X6419186Y-8468284D02*
X6390614Y-8468284D01*
X6571567Y-8468284D02*
X6552519Y-8458760D01*
X6552519Y-8458760D02*
X6542995Y-8439712D01*
X6542995Y-8439712D02*
X6542995Y-8268284D01*
X6723948Y-8458760D02*
X6704900Y-8468284D01*
X6704900Y-8468284D02*
X6666805Y-8468284D01*
X6666805Y-8468284D02*
X6647757Y-8458760D01*
X6647757Y-8458760D02*
X6638233Y-8439712D01*
X6638233Y-8439712D02*
X6638233Y-8363522D01*
X6638233Y-8363522D02*
X6647757Y-8344474D01*
X6647757Y-8344474D02*
X6666805Y-8334950D01*
X6666805Y-8334950D02*
X6704900Y-8334950D01*
X6704900Y-8334950D02*
X6723948Y-8344474D01*
X6723948Y-8344474D02*
X6733471Y-8363522D01*
X6733471Y-8363522D02*
X6733471Y-8382569D01*
X6733471Y-8382569D02*
X6638233Y-8401617D01*
X6809662Y-8458760D02*
X6828710Y-8468284D01*
X6828710Y-8468284D02*
X6866805Y-8468284D01*
X6866805Y-8468284D02*
X6885852Y-8458760D01*
X6885852Y-8458760D02*
X6895376Y-8439712D01*
X6895376Y-8439712D02*
X6895376Y-8430189D01*
X6895376Y-8430189D02*
X6885852Y-8411141D01*
X6885852Y-8411141D02*
X6866805Y-8401617D01*
X6866805Y-8401617D02*
X6838233Y-8401617D01*
X6838233Y-8401617D02*
X6819186Y-8392093D01*
X6819186Y-8392093D02*
X6809662Y-8373046D01*
X6809662Y-8373046D02*
X6809662Y-8363522D01*
X6809662Y-8363522D02*
X6819186Y-8344474D01*
X6819186Y-8344474D02*
X6838233Y-8334950D01*
X6838233Y-8334950D02*
X6866805Y-8334950D01*
X6866805Y-8334950D02*
X6885852Y-8344474D01*
X6962043Y-8544474D02*
X6971567Y-8534950D01*
X6971567Y-8534950D02*
X6990614Y-8506379D01*
X6990614Y-8506379D02*
X7000138Y-8487331D01*
X7000138Y-8487331D02*
X7009662Y-8458760D01*
X7009662Y-8458760D02*
X7019186Y-8411141D01*
X7019186Y-8411141D02*
X7019186Y-8373046D01*
X7019186Y-8373046D02*
X7009662Y-8325427D01*
X7009662Y-8325427D02*
X7000138Y-8296855D01*
X7000138Y-8296855D02*
X6990614Y-8277808D01*
X6990614Y-8277808D02*
X6971567Y-8249236D01*
X6971567Y-8249236D02*
X6962043Y-8239712D01*
X7323948Y-8544474D02*
X7314424Y-8534950D01*
X7314424Y-8534950D02*
X7295376Y-8506379D01*
X7295376Y-8506379D02*
X7285852Y-8487331D01*
X7285852Y-8487331D02*
X7276329Y-8458760D01*
X7276329Y-8458760D02*
X7266805Y-8411141D01*
X7266805Y-8411141D02*
X7266805Y-8373046D01*
X7266805Y-8373046D02*
X7276329Y-8325427D01*
X7276329Y-8325427D02*
X7285852Y-8296855D01*
X7285852Y-8296855D02*
X7295376Y-8277808D01*
X7295376Y-8277808D02*
X7314424Y-8249236D01*
X7314424Y-8249236D02*
X7323948Y-8239712D01*
X7400138Y-8334950D02*
X7400138Y-8468284D01*
X7400138Y-8353998D02*
X7409662Y-8344474D01*
X7409662Y-8344474D02*
X7428710Y-8334950D01*
X7428710Y-8334950D02*
X7457281Y-8334950D01*
X7457281Y-8334950D02*
X7476329Y-8344474D01*
X7476329Y-8344474D02*
X7485852Y-8363522D01*
X7485852Y-8363522D02*
X7485852Y-8468284D01*
X7609662Y-8468284D02*
X7590614Y-8458760D01*
X7590614Y-8458760D02*
X7581091Y-8449236D01*
X7581091Y-8449236D02*
X7571567Y-8430189D01*
X7571567Y-8430189D02*
X7571567Y-8373046D01*
X7571567Y-8373046D02*
X7581091Y-8353998D01*
X7581091Y-8353998D02*
X7590614Y-8344474D01*
X7590614Y-8344474D02*
X7609662Y-8334950D01*
X7609662Y-8334950D02*
X7638233Y-8334950D01*
X7638233Y-8334950D02*
X7657281Y-8344474D01*
X7657281Y-8344474D02*
X7666805Y-8353998D01*
X7666805Y-8353998D02*
X7676329Y-8373046D01*
X7676329Y-8373046D02*
X7676329Y-8430189D01*
X7676329Y-8430189D02*
X7666805Y-8449236D01*
X7666805Y-8449236D02*
X7657281Y-8458760D01*
X7657281Y-8458760D02*
X7638233Y-8468284D01*
X7638233Y-8468284D02*
X7609662Y-8468284D01*
X7733472Y-8334950D02*
X7809662Y-8334950D01*
X7762043Y-8268284D02*
X7762043Y-8439712D01*
X7762043Y-8439712D02*
X7771567Y-8458760D01*
X7771567Y-8458760D02*
X7790614Y-8468284D01*
X7790614Y-8468284D02*
X7809662Y-8468284D01*
X8028710Y-8334950D02*
X8028710Y-8534950D01*
X8028710Y-8344474D02*
X8047757Y-8334950D01*
X8047757Y-8334950D02*
X8085853Y-8334950D01*
X8085853Y-8334950D02*
X8104900Y-8344474D01*
X8104900Y-8344474D02*
X8114424Y-8353998D01*
X8114424Y-8353998D02*
X8123948Y-8373046D01*
X8123948Y-8373046D02*
X8123948Y-8430189D01*
X8123948Y-8430189D02*
X8114424Y-8449236D01*
X8114424Y-8449236D02*
X8104900Y-8458760D01*
X8104900Y-8458760D02*
X8085853Y-8468284D01*
X8085853Y-8468284D02*
X8047757Y-8468284D01*
X8047757Y-8468284D02*
X8028710Y-8458760D01*
X8238233Y-8468284D02*
X8219186Y-8458760D01*
X8219186Y-8458760D02*
X8209662Y-8439712D01*
X8209662Y-8439712D02*
X8209662Y-8268284D01*
X8400138Y-8468284D02*
X8400138Y-8363522D01*
X8400138Y-8363522D02*
X8390615Y-8344474D01*
X8390615Y-8344474D02*
X8371567Y-8334950D01*
X8371567Y-8334950D02*
X8333472Y-8334950D01*
X8333472Y-8334950D02*
X8314424Y-8344474D01*
X8400138Y-8458760D02*
X8381091Y-8468284D01*
X8381091Y-8468284D02*
X8333472Y-8468284D01*
X8333472Y-8468284D02*
X8314424Y-8458760D01*
X8314424Y-8458760D02*
X8304900Y-8439712D01*
X8304900Y-8439712D02*
X8304900Y-8420665D01*
X8304900Y-8420665D02*
X8314424Y-8401617D01*
X8314424Y-8401617D02*
X8333472Y-8392093D01*
X8333472Y-8392093D02*
X8381091Y-8392093D01*
X8381091Y-8392093D02*
X8400138Y-8382569D01*
X8466805Y-8334950D02*
X8542995Y-8334950D01*
X8495376Y-8268284D02*
X8495376Y-8439712D01*
X8495376Y-8439712D02*
X8504900Y-8458760D01*
X8504900Y-8458760D02*
X8523948Y-8468284D01*
X8523948Y-8468284D02*
X8542995Y-8468284D01*
X8685853Y-8458760D02*
X8666805Y-8468284D01*
X8666805Y-8468284D02*
X8628710Y-8468284D01*
X8628710Y-8468284D02*
X8609662Y-8458760D01*
X8609662Y-8458760D02*
X8600138Y-8439712D01*
X8600138Y-8439712D02*
X8600138Y-8363522D01*
X8600138Y-8363522D02*
X8609662Y-8344474D01*
X8609662Y-8344474D02*
X8628710Y-8334950D01*
X8628710Y-8334950D02*
X8666805Y-8334950D01*
X8666805Y-8334950D02*
X8685853Y-8344474D01*
X8685853Y-8344474D02*
X8695376Y-8363522D01*
X8695376Y-8363522D02*
X8695376Y-8382569D01*
X8695376Y-8382569D02*
X8600138Y-8401617D01*
X8866805Y-8468284D02*
X8866805Y-8268284D01*
X8866805Y-8458760D02*
X8847757Y-8468284D01*
X8847757Y-8468284D02*
X8809662Y-8468284D01*
X8809662Y-8468284D02*
X8790615Y-8458760D01*
X8790615Y-8458760D02*
X8781091Y-8449236D01*
X8781091Y-8449236D02*
X8771567Y-8430189D01*
X8771567Y-8430189D02*
X8771567Y-8373046D01*
X8771567Y-8373046D02*
X8781091Y-8353998D01*
X8781091Y-8353998D02*
X8790615Y-8344474D01*
X8790615Y-8344474D02*
X8809662Y-8334950D01*
X8809662Y-8334950D02*
X8847757Y-8334950D01*
X8847757Y-8334950D02*
X8866805Y-8344474D01*
X8942996Y-8544474D02*
X8952519Y-8534950D01*
X8952519Y-8534950D02*
X8971567Y-8506379D01*
X8971567Y-8506379D02*
X8981091Y-8487331D01*
X8981091Y-8487331D02*
X8990615Y-8458760D01*
X8990615Y-8458760D02*
X9000138Y-8411141D01*
X9000138Y-8411141D02*
X9000138Y-8373046D01*
X9000138Y-8373046D02*
X8990615Y-8325427D01*
X8990615Y-8325427D02*
X8981091Y-8296855D01*
X8981091Y-8296855D02*
X8971567Y-8277808D01*
X8971567Y-8277808D02*
X8952519Y-8249236D01*
X8952519Y-8249236D02*
X8942996Y-8239712D01*
M02*
