%TF.GenerationSoftware,KiCad,Pcbnew,8.0.6*%
%TF.CreationDate,2025-05-13T17:33:06-04:00*%
%TF.ProjectId,USB-Voltage-Tester,5553422d-566f-46c7-9461-67652d546573,rev?*%
%TF.SameCoordinates,Original*%
%TF.FileFunction,Soldermask,Top*%
%TF.FilePolarity,Negative*%
%FSLAX46Y46*%
G04 Gerber Fmt 4.6, Leading zero omitted, Abs format (unit mm)*
G04 Created by KiCad (PCBNEW 8.0.6) date 2025-05-13 17:33:06*
%MOMM*%
%LPD*%
G01*
G04 APERTURE LIST*
G04 Aperture macros list*
%AMRoundRect*
0 Rectangle with rounded corners*
0 $1 Rounding radius*
0 $2 $3 $4 $5 $6 $7 $8 $9 X,Y pos of 4 corners*
0 Add a 4 corners polygon primitive as box body*
4,1,4,$2,$3,$4,$5,$6,$7,$8,$9,$2,$3,0*
0 Add four circle primitives for the rounded corners*
1,1,$1+$1,$2,$3*
1,1,$1+$1,$4,$5*
1,1,$1+$1,$6,$7*
1,1,$1+$1,$8,$9*
0 Add four rect primitives between the rounded corners*
20,1,$1+$1,$2,$3,$4,$5,0*
20,1,$1+$1,$4,$5,$6,$7,0*
20,1,$1+$1,$6,$7,$8,$9,0*
20,1,$1+$1,$8,$9,$2,$3,0*%
G04 Aperture macros list end*
%ADD10C,0.650000*%
%ADD11R,1.450000X0.600000*%
%ADD12R,1.450000X0.300000*%
%ADD13O,2.100000X1.000000*%
%ADD14O,1.600000X1.000000*%
%ADD15RoundRect,0.050000X-0.387500X-0.050000X0.387500X-0.050000X0.387500X0.050000X-0.387500X0.050000X0*%
%ADD16RoundRect,0.050000X-0.050000X-0.387500X0.050000X-0.387500X0.050000X0.387500X-0.050000X0.387500X0*%
%ADD17R,3.200000X3.200000*%
%ADD18R,1.700000X1.700000*%
%ADD19O,1.700000X1.700000*%
%ADD20RoundRect,0.250000X-0.262500X-0.450000X0.262500X-0.450000X0.262500X0.450000X-0.262500X0.450000X0*%
%ADD21RoundRect,0.250000X-0.250000X-0.475000X0.250000X-0.475000X0.250000X0.475000X-0.250000X0.475000X0*%
%ADD22RoundRect,0.150000X-0.825000X-0.150000X0.825000X-0.150000X0.825000X0.150000X-0.825000X0.150000X0*%
G04 APERTURE END LIST*
D10*
%TO.C,J1*%
X31308400Y-46297800D03*
X31308400Y-52077800D03*
D11*
X32753400Y-45937800D03*
X32753400Y-46737800D03*
D12*
X32753400Y-47937800D03*
X32753400Y-48937800D03*
X32753400Y-49437800D03*
X32753400Y-50437800D03*
D11*
X32753400Y-51637800D03*
X32753400Y-52437800D03*
X32753400Y-52437800D03*
X32753400Y-51637800D03*
D12*
X32753400Y-50937800D03*
X32753400Y-49937800D03*
X32753400Y-48437800D03*
X32753400Y-47437800D03*
D11*
X32753400Y-46737800D03*
X32753400Y-45937800D03*
D13*
X31838400Y-44867800D03*
D14*
X27658400Y-44867800D03*
D13*
X31838400Y-53507800D03*
D14*
X27658400Y-53507800D03*
%TD*%
D15*
%TO.C,U2*%
X39453900Y-47852900D03*
X39453900Y-48252900D03*
X39453900Y-48652900D03*
X39453900Y-49052900D03*
X39453900Y-49452900D03*
X39453900Y-49852900D03*
X39453900Y-50252900D03*
X39453900Y-50652900D03*
X39453900Y-51052900D03*
X39453900Y-51452900D03*
X39453900Y-51852900D03*
X39453900Y-52252900D03*
X39453900Y-52652900D03*
X39453900Y-53052900D03*
D16*
X40291400Y-53890400D03*
X40691400Y-53890400D03*
X41091400Y-53890400D03*
X41491400Y-53890400D03*
X41891400Y-53890400D03*
X42291400Y-53890400D03*
X42691400Y-53890400D03*
X43091400Y-53890400D03*
X43491400Y-53890400D03*
X43891400Y-53890400D03*
X44291400Y-53890400D03*
X44691400Y-53890400D03*
X45091400Y-53890400D03*
X45491400Y-53890400D03*
D15*
X46328900Y-53052900D03*
X46328900Y-52652900D03*
X46328900Y-52252900D03*
X46328900Y-51852900D03*
X46328900Y-51452900D03*
X46328900Y-51052900D03*
X46328900Y-50652900D03*
X46328900Y-50252900D03*
X46328900Y-49852900D03*
X46328900Y-49452900D03*
X46328900Y-49052900D03*
X46328900Y-48652900D03*
X46328900Y-48252900D03*
X46328900Y-47852900D03*
D16*
X45491400Y-47015400D03*
X45091400Y-47015400D03*
X44691400Y-47015400D03*
X44291400Y-47015400D03*
X43891400Y-47015400D03*
X43491400Y-47015400D03*
X43091400Y-47015400D03*
X42691400Y-47015400D03*
X42291400Y-47015400D03*
X41891400Y-47015400D03*
X41491400Y-47015400D03*
X41091400Y-47015400D03*
X40691400Y-47015400D03*
X40291400Y-47015400D03*
D17*
X42891400Y-50452900D03*
%TD*%
D18*
%TO.C,J2*%
X27518200Y-72339200D03*
D19*
X30058200Y-72339200D03*
X32598200Y-72339200D03*
X35138200Y-72339200D03*
%TD*%
D20*
%TO.C,R1*%
X24360500Y-41198800D03*
X26185500Y-41198800D03*
%TD*%
D21*
%TO.C,C1*%
X60684900Y-36074000D03*
X62584900Y-36074000D03*
%TD*%
D20*
%TO.C,R2*%
X24436700Y-32639000D03*
X26261700Y-32639000D03*
%TD*%
%TO.C,R7*%
X50344700Y-54914800D03*
X52169700Y-54914800D03*
%TD*%
D22*
%TO.C,U1*%
X49431400Y-63881000D03*
X49431400Y-65151000D03*
X49431400Y-66421000D03*
X49431400Y-67691000D03*
X54381400Y-67691000D03*
X54381400Y-66421000D03*
X54381400Y-65151000D03*
X54381400Y-63881000D03*
%TD*%
D20*
%TO.C,R5*%
X39448100Y-36195000D03*
X41273100Y-36195000D03*
%TD*%
%TO.C,R3*%
X50141500Y-30022800D03*
X51966500Y-30022800D03*
%TD*%
%TO.C,R4*%
X42902500Y-70612000D03*
X44727500Y-70612000D03*
%TD*%
%TO.C,R6*%
X60784100Y-44424600D03*
X62609100Y-44424600D03*
%TD*%
M02*
