%TF.GenerationSoftware,KiCad,Pcbnew,8.0.6*%
%TF.CreationDate,2025-05-13T17:33:06-04:00*%
%TF.ProjectId,USB-Voltage-Tester,5553422d-566f-46c7-9461-67652d546573,rev?*%
%TF.SameCoordinates,Original*%
%TF.FileFunction,Copper,L1,Top*%
%TF.FilePolarity,Positive*%
%FSLAX46Y46*%
G04 Gerber Fmt 4.6, Leading zero omitted, Abs format (unit mm)*
G04 Created by KiCad (PCBNEW 8.0.6) date 2025-05-13 17:33:06*
%MOMM*%
%LPD*%
G01*
G04 APERTURE LIST*
G04 Aperture macros list*
%AMRoundRect*
0 Rectangle with rounded corners*
0 $1 Rounding radius*
0 $2 $3 $4 $5 $6 $7 $8 $9 X,Y pos of 4 corners*
0 Add a 4 corners polygon primitive as box body*
4,1,4,$2,$3,$4,$5,$6,$7,$8,$9,$2,$3,0*
0 Add four circle primitives for the rounded corners*
1,1,$1+$1,$2,$3*
1,1,$1+$1,$4,$5*
1,1,$1+$1,$6,$7*
1,1,$1+$1,$8,$9*
0 Add four rect primitives between the rounded corners*
20,1,$1+$1,$2,$3,$4,$5,0*
20,1,$1+$1,$4,$5,$6,$7,0*
20,1,$1+$1,$6,$7,$8,$9,0*
20,1,$1+$1,$8,$9,$2,$3,0*%
G04 Aperture macros list end*
%TA.AperFunction,SMDPad,CuDef*%
%ADD10R,1.450000X0.600000*%
%TD*%
%TA.AperFunction,SMDPad,CuDef*%
%ADD11R,1.450000X0.300000*%
%TD*%
%TA.AperFunction,ComponentPad*%
%ADD12O,2.100000X1.000000*%
%TD*%
%TA.AperFunction,ComponentPad*%
%ADD13O,1.600000X1.000000*%
%TD*%
%TA.AperFunction,SMDPad,CuDef*%
%ADD14RoundRect,0.050000X-0.387500X-0.050000X0.387500X-0.050000X0.387500X0.050000X-0.387500X0.050000X0*%
%TD*%
%TA.AperFunction,SMDPad,CuDef*%
%ADD15RoundRect,0.050000X-0.050000X-0.387500X0.050000X-0.387500X0.050000X0.387500X-0.050000X0.387500X0*%
%TD*%
%TA.AperFunction,HeatsinkPad*%
%ADD16R,3.200000X3.200000*%
%TD*%
%TA.AperFunction,ComponentPad*%
%ADD17R,1.700000X1.700000*%
%TD*%
%TA.AperFunction,ComponentPad*%
%ADD18O,1.700000X1.700000*%
%TD*%
%TA.AperFunction,SMDPad,CuDef*%
%ADD19RoundRect,0.250000X-0.262500X-0.450000X0.262500X-0.450000X0.262500X0.450000X-0.262500X0.450000X0*%
%TD*%
%TA.AperFunction,SMDPad,CuDef*%
%ADD20RoundRect,0.250000X-0.250000X-0.475000X0.250000X-0.475000X0.250000X0.475000X-0.250000X0.475000X0*%
%TD*%
%TA.AperFunction,SMDPad,CuDef*%
%ADD21RoundRect,0.150000X-0.825000X-0.150000X0.825000X-0.150000X0.825000X0.150000X-0.825000X0.150000X0*%
%TD*%
%TA.AperFunction,ViaPad*%
%ADD22C,0.600000*%
%TD*%
%TA.AperFunction,Conductor*%
%ADD23C,0.200000*%
%TD*%
G04 APERTURE END LIST*
D10*
%TO.P,J1,A1,GND*%
%TO.N,GND*%
X32753400Y-45937800D03*
%TO.P,J1,A4,VBUS*%
%TO.N,+5V*%
X32753400Y-46737800D03*
D11*
%TO.P,J1,A5,CC1*%
%TO.N,unconnected-(J1-CC1-PadA5)*%
X32753400Y-47937800D03*
%TO.P,J1,A6,D+*%
%TO.N,unconnected-(J1-D+-PadA6)*%
X32753400Y-48937800D03*
%TO.P,J1,A7,D-*%
%TO.N,unconnected-(J1-D--PadA7)*%
X32753400Y-49437800D03*
%TO.P,J1,A8,SBU1*%
%TO.N,unconnected-(J1-SBU1-PadA8)*%
X32753400Y-50437800D03*
D10*
%TO.P,J1,A9,VBUS*%
%TO.N,+5V*%
X32753400Y-51637800D03*
%TO.P,J1,A12,GND*%
%TO.N,GND*%
X32753400Y-52437800D03*
%TO.P,J1,B1,GND*%
X32753400Y-52437800D03*
%TO.P,J1,B4,VBUS*%
%TO.N,+5V*%
X32753400Y-51637800D03*
D11*
%TO.P,J1,B5,CC2*%
%TO.N,unconnected-(J1-CC2-PadB5)*%
X32753400Y-50937800D03*
%TO.P,J1,B6,D+*%
%TO.N,unconnected-(J1-D+-PadB6)*%
X32753400Y-49937800D03*
%TO.P,J1,B7,D-*%
%TO.N,unconnected-(J1-D--PadB7)*%
X32753400Y-48437800D03*
%TO.P,J1,B8,SBU2*%
%TO.N,unconnected-(J1-SBU2-PadB8)*%
X32753400Y-47437800D03*
D10*
%TO.P,J1,B9,VBUS*%
%TO.N,+5V*%
X32753400Y-46737800D03*
%TO.P,J1,B12,GND*%
%TO.N,GND*%
X32753400Y-45937800D03*
D12*
%TO.P,J1,S1,SHIELD*%
X31838400Y-44867800D03*
D13*
X27658400Y-44867800D03*
D12*
X31838400Y-53507800D03*
D13*
X27658400Y-53507800D03*
%TD*%
D14*
%TO.P,U2,1,IOVDD*%
%TO.N,+3.3V*%
X39453900Y-47852900D03*
%TO.P,U2,2,GPIO0*%
%TO.N,/SDA*%
X39453900Y-48252900D03*
%TO.P,U2,3,GPIO1*%
%TO.N,/SCL*%
X39453900Y-48652900D03*
%TO.P,U2,4,GPIO2*%
%TO.N,unconnected-(U2-GPIO2-Pad4)*%
X39453900Y-49052900D03*
%TO.P,U2,5,GPIO3*%
%TO.N,unconnected-(U2-GPIO3-Pad5)*%
X39453900Y-49452900D03*
%TO.P,U2,6,GPIO4*%
%TO.N,unconnected-(U2-GPIO4-Pad6)*%
X39453900Y-49852900D03*
%TO.P,U2,7,GPIO5*%
%TO.N,unconnected-(U2-GPIO5-Pad7)*%
X39453900Y-50252900D03*
%TO.P,U2,8,GPIO6*%
%TO.N,unconnected-(U2-GPIO6-Pad8)*%
X39453900Y-50652900D03*
%TO.P,U2,9,GPIO7*%
%TO.N,unconnected-(U2-GPIO7-Pad9)*%
X39453900Y-51052900D03*
%TO.P,U2,10,IOVDD*%
%TO.N,+3.3V*%
X39453900Y-51452900D03*
%TO.P,U2,11,GPIO8*%
%TO.N,unconnected-(U2-GPIO8-Pad11)*%
X39453900Y-51852900D03*
%TO.P,U2,12,GPIO9*%
%TO.N,unconnected-(U2-GPIO9-Pad12)*%
X39453900Y-52252900D03*
%TO.P,U2,13,GPIO10*%
%TO.N,unconnected-(U2-GPIO10-Pad13)*%
X39453900Y-52652900D03*
%TO.P,U2,14,GPIO11*%
%TO.N,unconnected-(U2-GPIO11-Pad14)*%
X39453900Y-53052900D03*
D15*
%TO.P,U2,15,GPIO12*%
%TO.N,unconnected-(U2-GPIO12-Pad15)*%
X40291400Y-53890400D03*
%TO.P,U2,16,GPIO13*%
%TO.N,unconnected-(U2-GPIO13-Pad16)*%
X40691400Y-53890400D03*
%TO.P,U2,17,GPIO14*%
%TO.N,unconnected-(U2-GPIO14-Pad17)*%
X41091400Y-53890400D03*
%TO.P,U2,18,GPIO15*%
%TO.N,unconnected-(U2-GPIO15-Pad18)*%
X41491400Y-53890400D03*
%TO.P,U2,19,TESTEN*%
%TO.N,GND*%
X41891400Y-53890400D03*
%TO.P,U2,20,XIN*%
%TO.N,unconnected-(U2-XIN-Pad20)*%
X42291400Y-53890400D03*
%TO.P,U2,21,XOUT*%
%TO.N,unconnected-(U2-XOUT-Pad21)*%
X42691400Y-53890400D03*
%TO.P,U2,22,IOVDD*%
%TO.N,+3.3V*%
X43091400Y-53890400D03*
%TO.P,U2,23,DVDD*%
X43491400Y-53890400D03*
%TO.P,U2,24,SWCLK*%
%TO.N,unconnected-(U2-SWCLK-Pad24)*%
X43891400Y-53890400D03*
%TO.P,U2,25,SWD*%
%TO.N,unconnected-(U2-SWD-Pad25)*%
X44291400Y-53890400D03*
%TO.P,U2,26,RUN*%
%TO.N,Net-(U2-RUN)*%
X44691400Y-53890400D03*
%TO.P,U2,27,GPIO16*%
%TO.N,unconnected-(U2-GPIO16-Pad27)*%
X45091400Y-53890400D03*
%TO.P,U2,28,GPIO17*%
%TO.N,unconnected-(U2-GPIO17-Pad28)*%
X45491400Y-53890400D03*
D14*
%TO.P,U2,29,GPIO18*%
%TO.N,unconnected-(U2-GPIO18-Pad29)*%
X46328900Y-53052900D03*
%TO.P,U2,30,GPIO19*%
%TO.N,unconnected-(U2-GPIO19-Pad30)*%
X46328900Y-52652900D03*
%TO.P,U2,31,GPIO20*%
%TO.N,unconnected-(U2-GPIO20-Pad31)*%
X46328900Y-52252900D03*
%TO.P,U2,32,GPIO21*%
%TO.N,unconnected-(U2-GPIO21-Pad32)*%
X46328900Y-51852900D03*
%TO.P,U2,33,IOVDD*%
%TO.N,+3.3V*%
X46328900Y-51452900D03*
%TO.P,U2,34,GPIO22*%
%TO.N,unconnected-(U2-GPIO22-Pad34)*%
X46328900Y-51052900D03*
%TO.P,U2,35,GPIO23*%
%TO.N,unconnected-(U2-GPIO23-Pad35)*%
X46328900Y-50652900D03*
%TO.P,U2,36,GPIO24*%
%TO.N,unconnected-(U2-GPIO24-Pad36)*%
X46328900Y-50252900D03*
%TO.P,U2,37,GPIO25*%
%TO.N,unconnected-(U2-GPIO25-Pad37)*%
X46328900Y-49852900D03*
%TO.P,U2,38,GPIO26_ADC0*%
%TO.N,/V_SENSE*%
X46328900Y-49452900D03*
%TO.P,U2,39,GPIO27_ADC1*%
%TO.N,/I_SENSE*%
X46328900Y-49052900D03*
%TO.P,U2,40,GPIO28_ADC2*%
%TO.N,unconnected-(U2-GPIO28_ADC2-Pad40)*%
X46328900Y-48652900D03*
%TO.P,U2,41,GPIO29_ADC3*%
%TO.N,unconnected-(U2-GPIO29_ADC3-Pad41)*%
X46328900Y-48252900D03*
%TO.P,U2,42,IOVDD*%
%TO.N,+3.3V*%
X46328900Y-47852900D03*
D15*
%TO.P,U2,43,ADC_AVDD*%
X45491400Y-47015400D03*
%TO.P,U2,44,VREG_IN*%
%TO.N,+5V*%
X45091400Y-47015400D03*
%TO.P,U2,45,VREG_VOUT*%
%TO.N,+3.3V*%
X44691400Y-47015400D03*
%TO.P,U2,46,USB_DM*%
%TO.N,unconnected-(U2-USB_DM-Pad46)*%
X44291400Y-47015400D03*
%TO.P,U2,47,USB_DP*%
%TO.N,unconnected-(U2-USB_DP-Pad47)*%
X43891400Y-47015400D03*
%TO.P,U2,48,USB_VDD*%
%TO.N,+3.3V*%
X43491400Y-47015400D03*
%TO.P,U2,49,IOVDD*%
X43091400Y-47015400D03*
%TO.P,U2,50,DVDD*%
X42691400Y-47015400D03*
%TO.P,U2,51,QSPI_SD3*%
%TO.N,unconnected-(U2-QSPI_SD3-Pad51)*%
X42291400Y-47015400D03*
%TO.P,U2,52,QSPI_SCLK*%
%TO.N,unconnected-(U2-QSPI_SCLK-Pad52)*%
X41891400Y-47015400D03*
%TO.P,U2,53,QSPI_SD0*%
%TO.N,unconnected-(U2-QSPI_SD0-Pad53)*%
X41491400Y-47015400D03*
%TO.P,U2,54,QSPI_SD2*%
%TO.N,unconnected-(U2-QSPI_SD2-Pad54)*%
X41091400Y-47015400D03*
%TO.P,U2,55,QSPI_SD1*%
%TO.N,unconnected-(U2-QSPI_SD1-Pad55)*%
X40691400Y-47015400D03*
%TO.P,U2,56,QSPI_SS*%
%TO.N,unconnected-(U2-QSPI_SS-Pad56)*%
X40291400Y-47015400D03*
D16*
%TO.P,U2,57,GND*%
%TO.N,GND*%
X42891400Y-50452900D03*
%TD*%
D17*
%TO.P,J2,1,Pin_1*%
%TO.N,GND*%
X27518200Y-72339200D03*
D18*
%TO.P,J2,2,Pin_2*%
%TO.N,+3.3V*%
X30058200Y-72339200D03*
%TO.P,J2,3,Pin_3*%
%TO.N,/SDA*%
X32598200Y-72339200D03*
%TO.P,J2,4,Pin_4*%
%TO.N,/SCL*%
X35138200Y-72339200D03*
%TD*%
D19*
%TO.P,R1,1*%
%TO.N,+5V*%
X24360500Y-41198800D03*
%TO.P,R1,2*%
%TO.N,/V_SENSE*%
X26185500Y-41198800D03*
%TD*%
D20*
%TO.P,C1,1*%
%TO.N,+3.3V*%
X60684900Y-36074000D03*
%TO.P,C1,2*%
%TO.N,GND*%
X62584900Y-36074000D03*
%TD*%
D19*
%TO.P,R2,1*%
%TO.N,/V_SENSE*%
X24436700Y-32639000D03*
%TO.P,R2,2*%
%TO.N,GND*%
X26261700Y-32639000D03*
%TD*%
%TO.P,R7,1*%
%TO.N,/SCL*%
X50344700Y-54914800D03*
%TO.P,R7,2*%
%TO.N,+3.3V*%
X52169700Y-54914800D03*
%TD*%
D21*
%TO.P,U1,1*%
%TO.N,/I_SENSE*%
X49431400Y-63881000D03*
%TO.P,U1,2,-*%
%TO.N,Net-(U1A--)*%
X49431400Y-65151000D03*
%TO.P,U1,3,+*%
%TO.N,/V_SENSE*%
X49431400Y-66421000D03*
%TO.P,U1,4,V-*%
%TO.N,GND*%
X49431400Y-67691000D03*
%TO.P,U1,5,+*%
X54381400Y-67691000D03*
%TO.P,U1,6,-*%
X54381400Y-66421000D03*
%TO.P,U1,7*%
%TO.N,unconnected-(U1-Pad7)*%
X54381400Y-65151000D03*
%TO.P,U1,8,V+*%
%TO.N,+5V*%
X54381400Y-63881000D03*
%TD*%
D19*
%TO.P,R5,1*%
%TO.N,/SDA*%
X39448100Y-36195000D03*
%TO.P,R5,2*%
%TO.N,+3.3V*%
X41273100Y-36195000D03*
%TD*%
%TO.P,R3,1*%
%TO.N,Net-(U1A--)*%
X50141500Y-30022800D03*
%TO.P,R3,2*%
%TO.N,/I_SENSE*%
X51966500Y-30022800D03*
%TD*%
%TO.P,R4,1*%
%TO.N,Net-(U1A--)*%
X42902500Y-70612000D03*
%TO.P,R4,2*%
%TO.N,GND*%
X44727500Y-70612000D03*
%TD*%
%TO.P,R6,1*%
%TO.N,Net-(U2-RUN)*%
X60784100Y-44424600D03*
%TO.P,R6,2*%
%TO.N,+3.3V*%
X62609100Y-44424600D03*
%TD*%
D22*
%TO.N,+3.3V*%
X35890200Y-48768000D03*
X37744400Y-50292000D03*
X49783228Y-51029372D03*
X51381058Y-50930142D03*
%TO.N,GND*%
X29768800Y-43129200D03*
X47218600Y-68046600D03*
X33070800Y-56057800D03*
X43586400Y-60375800D03*
X27838400Y-46405800D03*
X36957000Y-53365400D03*
%TO.N,+5V*%
X31496000Y-48412400D03*
X34544000Y-46685200D03*
%TO.N,/SDA*%
X40944800Y-48158400D03*
X39471600Y-38684200D03*
%TO.N,/SCL*%
X48056800Y-55702200D03*
X40640000Y-51993800D03*
%TO.N,/V_SENSE*%
X47442265Y-49280935D03*
X29311600Y-39928800D03*
X48310800Y-50469800D03*
X50215800Y-58928000D03*
%TO.N,Net-(U1A--)*%
X51816000Y-33147000D03*
X57835800Y-52349400D03*
%TO.N,/I_SENSE*%
X43840400Y-48352900D03*
X48818800Y-61010800D03*
X52070000Y-31902400D03*
X45110400Y-49834800D03*
%TO.N,Net-(U2-RUN)*%
X53289200Y-50520600D03*
X45389800Y-56540400D03*
%TD*%
D23*
%TO.N,+3.3V*%
X40095040Y-46277900D02*
X39453900Y-46919040D01*
X46328900Y-51452900D02*
X46862760Y-51452900D01*
X44691400Y-46481540D02*
X44487760Y-46277900D01*
X62609100Y-44424600D02*
X60684900Y-42500400D01*
X34315400Y-68082000D02*
X34315400Y-49022000D01*
X48910800Y-49900940D02*
X46862760Y-47852900D01*
X45287760Y-47752900D02*
X44831900Y-47752900D01*
X46862760Y-51452900D02*
X47164687Y-51150973D01*
X44487760Y-46277900D02*
X43695040Y-46277900D01*
X43491400Y-47015400D02*
X43091400Y-47015400D01*
X48910800Y-50718329D02*
X48910800Y-49900940D01*
X36805300Y-47852900D02*
X35890200Y-48768000D01*
X41273100Y-36195000D02*
X42691400Y-37613300D01*
X45491400Y-47549260D02*
X45287760Y-47752900D01*
X52169700Y-54914800D02*
X52169700Y-51718784D01*
X35484500Y-47852900D02*
X39453900Y-47852900D01*
X34315400Y-49022000D02*
X35484500Y-47852900D01*
X43091400Y-53890400D02*
X43491400Y-53890400D01*
X43491400Y-53890400D02*
X43491400Y-53356540D01*
X47164687Y-51150973D02*
X48478156Y-51150973D01*
X45795040Y-51452900D02*
X46328900Y-51452900D01*
X45795040Y-47852900D02*
X45491400Y-47549260D01*
X48478156Y-51150973D02*
X48910800Y-50718329D01*
X38920040Y-51452900D02*
X39453900Y-51452900D01*
X46328900Y-47852900D02*
X45795040Y-47852900D01*
X43491400Y-46481540D02*
X43491400Y-47015400D01*
X42691400Y-46481540D02*
X42487760Y-46277900D01*
X46862760Y-47852900D02*
X46328900Y-47852900D01*
X42691400Y-37613300D02*
X42691400Y-47015400D01*
X42487760Y-46277900D02*
X40095040Y-46277900D01*
X37744400Y-50292000D02*
X37759140Y-50292000D01*
X39453900Y-47852900D02*
X36805300Y-47852900D01*
X39453900Y-46919040D02*
X39453900Y-47852900D01*
X43491400Y-53356540D02*
X44495040Y-52352900D01*
X30058200Y-72339200D02*
X34315400Y-68082000D01*
X45491400Y-47015400D02*
X45491400Y-47549260D01*
X43695040Y-46277900D02*
X43491400Y-46481540D01*
X44895040Y-52352900D02*
X45795040Y-51452900D01*
X44691400Y-47015400D02*
X44691400Y-46481540D01*
X60684900Y-42500400D02*
X60684900Y-36074000D01*
X52169700Y-54914800D02*
X52169700Y-54864000D01*
X44495040Y-52352900D02*
X44895040Y-52352900D01*
X44831900Y-47752900D02*
X44691400Y-47612400D01*
X42691400Y-47015400D02*
X42691400Y-46481540D01*
X37759140Y-50292000D02*
X38920040Y-51452900D01*
X49359700Y-51452900D02*
X46328900Y-51452900D01*
X52169700Y-51718784D02*
X51381058Y-50930142D01*
X49783228Y-51029372D02*
X49359700Y-51452900D01*
X52169700Y-54864000D02*
X62609100Y-44424600D01*
X43091400Y-47015400D02*
X42691400Y-47015400D01*
X44691400Y-47612400D02*
X44691400Y-47015400D01*
%TO.N,GND*%
X33778400Y-46137800D02*
X33578400Y-45937800D01*
X27838400Y-45047800D02*
X27658400Y-44867800D01*
X32753400Y-52437800D02*
X33578400Y-52437800D01*
X47752000Y-67691000D02*
X49431400Y-67691000D01*
X31838400Y-53352800D02*
X32753400Y-52437800D01*
X63421600Y-36910700D02*
X63421600Y-58355799D01*
X40095040Y-54627900D02*
X41714300Y-54627900D01*
X47218600Y-68046600D02*
X47396400Y-68046600D01*
X33778400Y-52237800D02*
X33778400Y-46137800D01*
X41714300Y-54627900D02*
X41891400Y-54450800D01*
X33578400Y-45937800D02*
X32753400Y-45937800D01*
X41714300Y-54627900D02*
X43586400Y-56500000D01*
X63421600Y-58355799D02*
X55356399Y-66421000D01*
X31838400Y-53507800D02*
X31838400Y-53352800D01*
X27658400Y-53507800D02*
X31838400Y-53507800D01*
X23548000Y-35352700D02*
X26261700Y-32639000D01*
X32753400Y-45937800D02*
X32753400Y-45782800D01*
X41850300Y-73489200D02*
X28668200Y-73489200D01*
X25578400Y-44867800D02*
X27658400Y-44867800D01*
X55356399Y-66421000D02*
X54381400Y-66421000D01*
X32753400Y-45782800D02*
X31838400Y-44867800D01*
X46510400Y-70612000D02*
X49431400Y-67691000D01*
X36957000Y-51917600D02*
X37541200Y-51333400D01*
X32753400Y-55740400D02*
X33070800Y-56057800D01*
X31838400Y-44867800D02*
X31507400Y-44867800D01*
X37541200Y-51333400D02*
X37541200Y-52074060D01*
X23548000Y-42837400D02*
X23548000Y-35352700D01*
X47396400Y-68046600D02*
X47752000Y-67691000D01*
X41891400Y-51452900D02*
X41891400Y-53890400D01*
X41891400Y-54450800D02*
X41891400Y-53890400D01*
X62584900Y-36074000D02*
X63421600Y-36910700D01*
X28668200Y-73489200D02*
X27518200Y-72339200D01*
X44727500Y-70612000D02*
X41850300Y-73489200D01*
X32753400Y-52437800D02*
X32753400Y-55740400D01*
X37541200Y-52074060D02*
X40095040Y-54627900D01*
X54381400Y-67691000D02*
X49431400Y-67691000D01*
X33578400Y-52437800D02*
X33778400Y-52237800D01*
X36957000Y-53365400D02*
X36957000Y-51917600D01*
X31507400Y-44867800D02*
X29768800Y-43129200D01*
X23548000Y-42837400D02*
X25578400Y-44867800D01*
X43586400Y-56500000D02*
X43586400Y-60375800D01*
X54381400Y-66421000D02*
X54381400Y-67691000D01*
X27838400Y-46405800D02*
X27838400Y-45047800D01*
X44727500Y-70612000D02*
X46510400Y-70612000D01*
X42891400Y-50452900D02*
X41891400Y-51452900D01*
%TO.N,+5V*%
X32753400Y-51637800D02*
X31978400Y-51637800D01*
X31978400Y-46737800D02*
X32753400Y-46737800D01*
X30633400Y-46577394D02*
X31028806Y-46972800D01*
X31496000Y-51155400D02*
X31496000Y-48412400D01*
X31978400Y-51637800D02*
X31496000Y-51155400D01*
X45880286Y-46277900D02*
X51357200Y-51754814D01*
X28536771Y-42214800D02*
X28536771Y-43921577D01*
X34544000Y-44612529D02*
X34544000Y-46685200D01*
X32518400Y-46972800D02*
X32753400Y-46737800D01*
X31496000Y-47220200D02*
X31978400Y-46737800D01*
X40284400Y-35686456D02*
X40284400Y-38719929D01*
X40775856Y-35195000D02*
X40284400Y-35686456D01*
X25376500Y-42214800D02*
X24360500Y-41198800D01*
X30633400Y-46018206D02*
X30633400Y-46577394D01*
X34467900Y-44536429D02*
X34544000Y-44612529D01*
X45091400Y-46481540D02*
X45295040Y-46277900D01*
X28536771Y-42214800D02*
X25376500Y-42214800D01*
X40284400Y-38719929D02*
X34467900Y-44536429D01*
X28536771Y-43921577D02*
X30633400Y-46018206D01*
X41770344Y-35195000D02*
X40775856Y-35195000D01*
X45091400Y-46481540D02*
X45091400Y-38516056D01*
X31496000Y-48412400D02*
X31496000Y-47220200D01*
X45091400Y-47015400D02*
X45091400Y-46481540D01*
X45295040Y-46277900D02*
X45880286Y-46277900D01*
X45091400Y-38516056D02*
X41770344Y-35195000D01*
X51357200Y-51754814D02*
X51357200Y-60856800D01*
X31028806Y-46972800D02*
X32518400Y-46972800D01*
X51357200Y-60856800D02*
X54381400Y-63881000D01*
%TO.N,/SDA*%
X39448100Y-36195000D02*
X39448100Y-38660700D01*
X40850300Y-48252900D02*
X39453900Y-48252900D01*
X40944800Y-48158400D02*
X40850300Y-48252900D01*
X32598200Y-72339200D02*
X36271200Y-68666200D01*
X36271200Y-68666200D02*
X36271200Y-49453800D01*
X39448100Y-38660700D02*
X39471600Y-38684200D01*
X37472100Y-48252900D02*
X39453900Y-48252900D01*
X36271200Y-49453800D02*
X37472100Y-48252900D01*
%TO.N,/SCL*%
X39987760Y-48652900D02*
X40640000Y-49305140D01*
X40640000Y-49305140D02*
X40640000Y-51993800D01*
X39453900Y-48652900D02*
X39987760Y-48652900D01*
X35138200Y-72339200D02*
X50344700Y-57132700D01*
X50344700Y-57132700D02*
X50344700Y-54914800D01*
X48844200Y-54914800D02*
X50344700Y-54914800D01*
X48056800Y-55702200D02*
X48844200Y-54914800D01*
%TO.N,/V_SENSE*%
X27074200Y-31954256D02*
X26758944Y-31639000D01*
X46328900Y-49452900D02*
X47270300Y-49452900D01*
X50744700Y-66082699D02*
X50744700Y-59456900D01*
X50744700Y-59456900D02*
X50215800Y-58928000D01*
X25436700Y-31639000D02*
X24436700Y-32639000D01*
X26758944Y-31639000D02*
X25436700Y-31639000D01*
X26185500Y-41198800D02*
X27074200Y-40310100D01*
X27074200Y-40310100D02*
X27074200Y-31954256D01*
X47270300Y-49452900D02*
X47442265Y-49280935D01*
X46862760Y-49452900D02*
X46328900Y-49452900D01*
X50406399Y-66421000D02*
X50744700Y-66082699D01*
X49431400Y-66421000D02*
X50406399Y-66421000D01*
X47879660Y-50469800D02*
X46862760Y-49452900D01*
X48310800Y-50469800D02*
X47879660Y-50469800D01*
X29311600Y-39928800D02*
X28041600Y-41198800D01*
X28041600Y-41198800D02*
X26185500Y-41198800D01*
%TO.N,Net-(U1A--)*%
X51816000Y-33147000D02*
X50141500Y-31472500D01*
X53365848Y-65821000D02*
X55390713Y-65821000D01*
X55390713Y-65821000D02*
X57835800Y-63375913D01*
X52095848Y-67091000D02*
X53365848Y-65821000D01*
X50141500Y-31472500D02*
X50141500Y-30022800D01*
X42902500Y-70612000D02*
X48363500Y-65151000D01*
X48456401Y-65151000D02*
X48156400Y-65451001D01*
X48363500Y-65151000D02*
X49431400Y-65151000D01*
X48156400Y-66831552D02*
X48415848Y-67091000D01*
X48415848Y-67091000D02*
X52095848Y-67091000D01*
X57835800Y-63375913D02*
X57835800Y-52349400D01*
X49431400Y-65151000D02*
X48456401Y-65151000D01*
X48156400Y-65451001D02*
X48156400Y-66831552D01*
%TO.N,/I_SENSE*%
X49431400Y-63881000D02*
X48818800Y-63268400D01*
X44791400Y-49515800D02*
X45110400Y-49834800D01*
X44791400Y-48552900D02*
X44791400Y-49052900D01*
X44591400Y-48352900D02*
X44791400Y-48552900D01*
X43840400Y-48352900D02*
X44591400Y-48352900D01*
X48818800Y-63268400D02*
X48818800Y-61010800D01*
X52070000Y-31902400D02*
X52070000Y-30126300D01*
X44791400Y-48552900D02*
X44791400Y-49515800D01*
X44791400Y-49052900D02*
X46328900Y-49052900D01*
X52070000Y-30126300D02*
X51966500Y-30022800D01*
%TO.N,Net-(U2-RUN)*%
X45389800Y-56540400D02*
X44691400Y-55842000D01*
X59385200Y-44424600D02*
X53289200Y-50520600D01*
X60784100Y-44424600D02*
X59385200Y-44424600D01*
X44691400Y-55842000D02*
X44691400Y-53890400D01*
%TD*%
M02*
