%TF.GenerationSoftware,KiCad,Pcbnew,8.0.6*%
%TF.CreationDate,2025-05-13T17:33:06-04:00*%
%TF.ProjectId,USB-Voltage-Tester,5553422d-566f-46c7-9461-67652d546573,rev?*%
%TF.SameCoordinates,Original*%
%TF.FileFunction,Legend,Top*%
%TF.FilePolarity,Positive*%
%FSLAX46Y46*%
G04 Gerber Fmt 4.6, Leading zero omitted, Abs format (unit mm)*
G04 Created by KiCad (PCBNEW 8.0.6) date 2025-05-13 17:33:06*
%MOMM*%
%LPD*%
G01*
G04 APERTURE LIST*
%ADD10C,0.100000*%
%ADD11C,0.150000*%
%ADD12C,0.120000*%
G04 APERTURE END LIST*
D10*
X45160284Y-74843475D02*
X45160284Y-73843475D01*
X45160284Y-73843475D02*
X45398379Y-73843475D01*
X45398379Y-73843475D02*
X45541236Y-73891094D01*
X45541236Y-73891094D02*
X45636474Y-73986332D01*
X45636474Y-73986332D02*
X45684093Y-74081570D01*
X45684093Y-74081570D02*
X45731712Y-74272046D01*
X45731712Y-74272046D02*
X45731712Y-74414903D01*
X45731712Y-74414903D02*
X45684093Y-74605379D01*
X45684093Y-74605379D02*
X45636474Y-74700617D01*
X45636474Y-74700617D02*
X45541236Y-74795856D01*
X45541236Y-74795856D02*
X45398379Y-74843475D01*
X45398379Y-74843475D02*
X45160284Y-74843475D01*
X46541236Y-74795856D02*
X46445998Y-74843475D01*
X46445998Y-74843475D02*
X46255522Y-74843475D01*
X46255522Y-74843475D02*
X46160284Y-74795856D01*
X46160284Y-74795856D02*
X46112665Y-74700617D01*
X46112665Y-74700617D02*
X46112665Y-74319665D01*
X46112665Y-74319665D02*
X46160284Y-74224427D01*
X46160284Y-74224427D02*
X46255522Y-74176808D01*
X46255522Y-74176808D02*
X46445998Y-74176808D01*
X46445998Y-74176808D02*
X46541236Y-74224427D01*
X46541236Y-74224427D02*
X46588855Y-74319665D01*
X46588855Y-74319665D02*
X46588855Y-74414903D01*
X46588855Y-74414903D02*
X46112665Y-74510141D01*
X46969808Y-74795856D02*
X47065046Y-74843475D01*
X47065046Y-74843475D02*
X47255522Y-74843475D01*
X47255522Y-74843475D02*
X47350760Y-74795856D01*
X47350760Y-74795856D02*
X47398379Y-74700617D01*
X47398379Y-74700617D02*
X47398379Y-74652998D01*
X47398379Y-74652998D02*
X47350760Y-74557760D01*
X47350760Y-74557760D02*
X47255522Y-74510141D01*
X47255522Y-74510141D02*
X47112665Y-74510141D01*
X47112665Y-74510141D02*
X47017427Y-74462522D01*
X47017427Y-74462522D02*
X46969808Y-74367284D01*
X46969808Y-74367284D02*
X46969808Y-74319665D01*
X46969808Y-74319665D02*
X47017427Y-74224427D01*
X47017427Y-74224427D02*
X47112665Y-74176808D01*
X47112665Y-74176808D02*
X47255522Y-74176808D01*
X47255522Y-74176808D02*
X47350760Y-74224427D01*
X47826951Y-74843475D02*
X47826951Y-74176808D01*
X47826951Y-73843475D02*
X47779332Y-73891094D01*
X47779332Y-73891094D02*
X47826951Y-73938713D01*
X47826951Y-73938713D02*
X47874570Y-73891094D01*
X47874570Y-73891094D02*
X47826951Y-73843475D01*
X47826951Y-73843475D02*
X47826951Y-73938713D01*
X48731712Y-74176808D02*
X48731712Y-74986332D01*
X48731712Y-74986332D02*
X48684093Y-75081570D01*
X48684093Y-75081570D02*
X48636474Y-75129189D01*
X48636474Y-75129189D02*
X48541236Y-75176808D01*
X48541236Y-75176808D02*
X48398379Y-75176808D01*
X48398379Y-75176808D02*
X48303141Y-75129189D01*
X48731712Y-74795856D02*
X48636474Y-74843475D01*
X48636474Y-74843475D02*
X48445998Y-74843475D01*
X48445998Y-74843475D02*
X48350760Y-74795856D01*
X48350760Y-74795856D02*
X48303141Y-74748236D01*
X48303141Y-74748236D02*
X48255522Y-74652998D01*
X48255522Y-74652998D02*
X48255522Y-74367284D01*
X48255522Y-74367284D02*
X48303141Y-74272046D01*
X48303141Y-74272046D02*
X48350760Y-74224427D01*
X48350760Y-74224427D02*
X48445998Y-74176808D01*
X48445998Y-74176808D02*
X48636474Y-74176808D01*
X48636474Y-74176808D02*
X48731712Y-74224427D01*
X49207903Y-74176808D02*
X49207903Y-74843475D01*
X49207903Y-74272046D02*
X49255522Y-74224427D01*
X49255522Y-74224427D02*
X49350760Y-74176808D01*
X49350760Y-74176808D02*
X49493617Y-74176808D01*
X49493617Y-74176808D02*
X49588855Y-74224427D01*
X49588855Y-74224427D02*
X49636474Y-74319665D01*
X49636474Y-74319665D02*
X49636474Y-74843475D01*
X50493617Y-74795856D02*
X50398379Y-74843475D01*
X50398379Y-74843475D02*
X50207903Y-74843475D01*
X50207903Y-74843475D02*
X50112665Y-74795856D01*
X50112665Y-74795856D02*
X50065046Y-74700617D01*
X50065046Y-74700617D02*
X50065046Y-74319665D01*
X50065046Y-74319665D02*
X50112665Y-74224427D01*
X50112665Y-74224427D02*
X50207903Y-74176808D01*
X50207903Y-74176808D02*
X50398379Y-74176808D01*
X50398379Y-74176808D02*
X50493617Y-74224427D01*
X50493617Y-74224427D02*
X50541236Y-74319665D01*
X50541236Y-74319665D02*
X50541236Y-74414903D01*
X50541236Y-74414903D02*
X50065046Y-74510141D01*
X51398379Y-74843475D02*
X51398379Y-73843475D01*
X51398379Y-74795856D02*
X51303141Y-74843475D01*
X51303141Y-74843475D02*
X51112665Y-74843475D01*
X51112665Y-74843475D02*
X51017427Y-74795856D01*
X51017427Y-74795856D02*
X50969808Y-74748236D01*
X50969808Y-74748236D02*
X50922189Y-74652998D01*
X50922189Y-74652998D02*
X50922189Y-74367284D01*
X50922189Y-74367284D02*
X50969808Y-74272046D01*
X50969808Y-74272046D02*
X51017427Y-74224427D01*
X51017427Y-74224427D02*
X51112665Y-74176808D01*
X51112665Y-74176808D02*
X51303141Y-74176808D01*
X51303141Y-74176808D02*
X51398379Y-74224427D01*
X52636475Y-74843475D02*
X52636475Y-73843475D01*
X52636475Y-74224427D02*
X52731713Y-74176808D01*
X52731713Y-74176808D02*
X52922189Y-74176808D01*
X52922189Y-74176808D02*
X53017427Y-74224427D01*
X53017427Y-74224427D02*
X53065046Y-74272046D01*
X53065046Y-74272046D02*
X53112665Y-74367284D01*
X53112665Y-74367284D02*
X53112665Y-74652998D01*
X53112665Y-74652998D02*
X53065046Y-74748236D01*
X53065046Y-74748236D02*
X53017427Y-74795856D01*
X53017427Y-74795856D02*
X52922189Y-74843475D01*
X52922189Y-74843475D02*
X52731713Y-74843475D01*
X52731713Y-74843475D02*
X52636475Y-74795856D01*
X53445999Y-74176808D02*
X53684094Y-74843475D01*
X53922189Y-74176808D02*
X53684094Y-74843475D01*
X53684094Y-74843475D02*
X53588856Y-75081570D01*
X53588856Y-75081570D02*
X53541237Y-75129189D01*
X53541237Y-75129189D02*
X53445999Y-75176808D01*
X55017428Y-74557760D02*
X55493618Y-74557760D01*
X54922190Y-74843475D02*
X55255523Y-73843475D01*
X55255523Y-73843475D02*
X55588856Y-74843475D01*
X55922190Y-74843475D02*
X55922190Y-73843475D01*
X56017428Y-74462522D02*
X56303142Y-74843475D01*
X56303142Y-74176808D02*
X55922190Y-74557760D01*
X56731714Y-74843475D02*
X56731714Y-74176808D01*
X56731714Y-74272046D02*
X56779333Y-74224427D01*
X56779333Y-74224427D02*
X56874571Y-74176808D01*
X56874571Y-74176808D02*
X57017428Y-74176808D01*
X57017428Y-74176808D02*
X57112666Y-74224427D01*
X57112666Y-74224427D02*
X57160285Y-74319665D01*
X57160285Y-74319665D02*
X57160285Y-74843475D01*
X57160285Y-74319665D02*
X57207904Y-74224427D01*
X57207904Y-74224427D02*
X57303142Y-74176808D01*
X57303142Y-74176808D02*
X57445999Y-74176808D01*
X57445999Y-74176808D02*
X57541238Y-74224427D01*
X57541238Y-74224427D02*
X57588857Y-74319665D01*
X57588857Y-74319665D02*
X57588857Y-74843475D01*
X58493618Y-74843475D02*
X58493618Y-74319665D01*
X58493618Y-74319665D02*
X58445999Y-74224427D01*
X58445999Y-74224427D02*
X58350761Y-74176808D01*
X58350761Y-74176808D02*
X58160285Y-74176808D01*
X58160285Y-74176808D02*
X58065047Y-74224427D01*
X58493618Y-74795856D02*
X58398380Y-74843475D01*
X58398380Y-74843475D02*
X58160285Y-74843475D01*
X58160285Y-74843475D02*
X58065047Y-74795856D01*
X58065047Y-74795856D02*
X58017428Y-74700617D01*
X58017428Y-74700617D02*
X58017428Y-74605379D01*
X58017428Y-74605379D02*
X58065047Y-74510141D01*
X58065047Y-74510141D02*
X58160285Y-74462522D01*
X58160285Y-74462522D02*
X58398380Y-74462522D01*
X58398380Y-74462522D02*
X58493618Y-74414903D01*
X59112666Y-74843475D02*
X59017428Y-74795856D01*
X59017428Y-74795856D02*
X58969809Y-74700617D01*
X58969809Y-74700617D02*
X58969809Y-73843475D01*
X60255524Y-74843475D02*
X60255524Y-73843475D01*
X60255524Y-73843475D02*
X60826952Y-74843475D01*
X60826952Y-74843475D02*
X60826952Y-73843475D01*
X61731714Y-74843475D02*
X61731714Y-74319665D01*
X61731714Y-74319665D02*
X61684095Y-74224427D01*
X61684095Y-74224427D02*
X61588857Y-74176808D01*
X61588857Y-74176808D02*
X61398381Y-74176808D01*
X61398381Y-74176808D02*
X61303143Y-74224427D01*
X61731714Y-74795856D02*
X61636476Y-74843475D01*
X61636476Y-74843475D02*
X61398381Y-74843475D01*
X61398381Y-74843475D02*
X61303143Y-74795856D01*
X61303143Y-74795856D02*
X61255524Y-74700617D01*
X61255524Y-74700617D02*
X61255524Y-74605379D01*
X61255524Y-74605379D02*
X61303143Y-74510141D01*
X61303143Y-74510141D02*
X61398381Y-74462522D01*
X61398381Y-74462522D02*
X61636476Y-74462522D01*
X61636476Y-74462522D02*
X61731714Y-74414903D01*
X62112667Y-74176808D02*
X62636476Y-74176808D01*
X62636476Y-74176808D02*
X62112667Y-74843475D01*
X62112667Y-74843475D02*
X62636476Y-74843475D01*
X63017429Y-74843475D02*
X63017429Y-74176808D01*
X63017429Y-73843475D02*
X62969810Y-73891094D01*
X62969810Y-73891094D02*
X63017429Y-73938713D01*
X63017429Y-73938713D02*
X63065048Y-73891094D01*
X63065048Y-73891094D02*
X63017429Y-73843475D01*
X63017429Y-73843475D02*
X63017429Y-73938713D01*
X63493619Y-74843475D02*
X63493619Y-74176808D01*
X63493619Y-74367284D02*
X63541238Y-74272046D01*
X63541238Y-74272046D02*
X63588857Y-74224427D01*
X63588857Y-74224427D02*
X63684095Y-74176808D01*
X63684095Y-74176808D02*
X63779333Y-74176808D01*
X45588855Y-75786752D02*
X45588855Y-76596276D01*
X45588855Y-76596276D02*
X45541236Y-76691514D01*
X45541236Y-76691514D02*
X45493617Y-76739133D01*
X45493617Y-76739133D02*
X45398379Y-76786752D01*
X45398379Y-76786752D02*
X45255522Y-76786752D01*
X45255522Y-76786752D02*
X45160284Y-76739133D01*
X45588855Y-76405800D02*
X45493617Y-76453419D01*
X45493617Y-76453419D02*
X45303141Y-76453419D01*
X45303141Y-76453419D02*
X45207903Y-76405800D01*
X45207903Y-76405800D02*
X45160284Y-76358180D01*
X45160284Y-76358180D02*
X45112665Y-76262942D01*
X45112665Y-76262942D02*
X45112665Y-75977228D01*
X45112665Y-75977228D02*
X45160284Y-75881990D01*
X45160284Y-75881990D02*
X45207903Y-75834371D01*
X45207903Y-75834371D02*
X45303141Y-75786752D01*
X45303141Y-75786752D02*
X45493617Y-75786752D01*
X45493617Y-75786752D02*
X45588855Y-75834371D01*
X46065046Y-76453419D02*
X46065046Y-75786752D01*
X46065046Y-75453419D02*
X46017427Y-75501038D01*
X46017427Y-75501038D02*
X46065046Y-75548657D01*
X46065046Y-75548657D02*
X46112665Y-75501038D01*
X46112665Y-75501038D02*
X46065046Y-75453419D01*
X46065046Y-75453419D02*
X46065046Y-75548657D01*
X46398379Y-75786752D02*
X46779331Y-75786752D01*
X46541236Y-75453419D02*
X46541236Y-76310561D01*
X46541236Y-76310561D02*
X46588855Y-76405800D01*
X46588855Y-76405800D02*
X46684093Y-76453419D01*
X46684093Y-76453419D02*
X46779331Y-76453419D01*
X47112665Y-76453419D02*
X47112665Y-75453419D01*
X47541236Y-76453419D02*
X47541236Y-75929609D01*
X47541236Y-75929609D02*
X47493617Y-75834371D01*
X47493617Y-75834371D02*
X47398379Y-75786752D01*
X47398379Y-75786752D02*
X47255522Y-75786752D01*
X47255522Y-75786752D02*
X47160284Y-75834371D01*
X47160284Y-75834371D02*
X47112665Y-75881990D01*
X48445998Y-75786752D02*
X48445998Y-76453419D01*
X48017427Y-75786752D02*
X48017427Y-76310561D01*
X48017427Y-76310561D02*
X48065046Y-76405800D01*
X48065046Y-76405800D02*
X48160284Y-76453419D01*
X48160284Y-76453419D02*
X48303141Y-76453419D01*
X48303141Y-76453419D02*
X48398379Y-76405800D01*
X48398379Y-76405800D02*
X48445998Y-76358180D01*
X48922189Y-76453419D02*
X48922189Y-75453419D01*
X48922189Y-75834371D02*
X49017427Y-75786752D01*
X49017427Y-75786752D02*
X49207903Y-75786752D01*
X49207903Y-75786752D02*
X49303141Y-75834371D01*
X49303141Y-75834371D02*
X49350760Y-75881990D01*
X49350760Y-75881990D02*
X49398379Y-75977228D01*
X49398379Y-75977228D02*
X49398379Y-76262942D01*
X49398379Y-76262942D02*
X49350760Y-76358180D01*
X49350760Y-76358180D02*
X49303141Y-76405800D01*
X49303141Y-76405800D02*
X49207903Y-76453419D01*
X49207903Y-76453419D02*
X49017427Y-76453419D01*
X49017427Y-76453419D02*
X48922189Y-76405800D01*
X49826951Y-76358180D02*
X49874570Y-76405800D01*
X49874570Y-76405800D02*
X49826951Y-76453419D01*
X49826951Y-76453419D02*
X49779332Y-76405800D01*
X49779332Y-76405800D02*
X49826951Y-76358180D01*
X49826951Y-76358180D02*
X49826951Y-76453419D01*
X50731712Y-76405800D02*
X50636474Y-76453419D01*
X50636474Y-76453419D02*
X50445998Y-76453419D01*
X50445998Y-76453419D02*
X50350760Y-76405800D01*
X50350760Y-76405800D02*
X50303141Y-76358180D01*
X50303141Y-76358180D02*
X50255522Y-76262942D01*
X50255522Y-76262942D02*
X50255522Y-75977228D01*
X50255522Y-75977228D02*
X50303141Y-75881990D01*
X50303141Y-75881990D02*
X50350760Y-75834371D01*
X50350760Y-75834371D02*
X50445998Y-75786752D01*
X50445998Y-75786752D02*
X50636474Y-75786752D01*
X50636474Y-75786752D02*
X50731712Y-75834371D01*
X51303141Y-76453419D02*
X51207903Y-76405800D01*
X51207903Y-76405800D02*
X51160284Y-76358180D01*
X51160284Y-76358180D02*
X51112665Y-76262942D01*
X51112665Y-76262942D02*
X51112665Y-75977228D01*
X51112665Y-75977228D02*
X51160284Y-75881990D01*
X51160284Y-75881990D02*
X51207903Y-75834371D01*
X51207903Y-75834371D02*
X51303141Y-75786752D01*
X51303141Y-75786752D02*
X51445998Y-75786752D01*
X51445998Y-75786752D02*
X51541236Y-75834371D01*
X51541236Y-75834371D02*
X51588855Y-75881990D01*
X51588855Y-75881990D02*
X51636474Y-75977228D01*
X51636474Y-75977228D02*
X51636474Y-76262942D01*
X51636474Y-76262942D02*
X51588855Y-76358180D01*
X51588855Y-76358180D02*
X51541236Y-76405800D01*
X51541236Y-76405800D02*
X51445998Y-76453419D01*
X51445998Y-76453419D02*
X51303141Y-76453419D01*
X52065046Y-76453419D02*
X52065046Y-75786752D01*
X52065046Y-75881990D02*
X52112665Y-75834371D01*
X52112665Y-75834371D02*
X52207903Y-75786752D01*
X52207903Y-75786752D02*
X52350760Y-75786752D01*
X52350760Y-75786752D02*
X52445998Y-75834371D01*
X52445998Y-75834371D02*
X52493617Y-75929609D01*
X52493617Y-75929609D02*
X52493617Y-76453419D01*
X52493617Y-75929609D02*
X52541236Y-75834371D01*
X52541236Y-75834371D02*
X52636474Y-75786752D01*
X52636474Y-75786752D02*
X52779331Y-75786752D01*
X52779331Y-75786752D02*
X52874570Y-75834371D01*
X52874570Y-75834371D02*
X52922189Y-75929609D01*
X52922189Y-75929609D02*
X52922189Y-76453419D01*
X54112664Y-75405800D02*
X53255522Y-76691514D01*
X54874569Y-76453419D02*
X54874569Y-75929609D01*
X54874569Y-75929609D02*
X54826950Y-75834371D01*
X54826950Y-75834371D02*
X54731712Y-75786752D01*
X54731712Y-75786752D02*
X54541236Y-75786752D01*
X54541236Y-75786752D02*
X54445998Y-75834371D01*
X54874569Y-76405800D02*
X54779331Y-76453419D01*
X54779331Y-76453419D02*
X54541236Y-76453419D01*
X54541236Y-76453419D02*
X54445998Y-76405800D01*
X54445998Y-76405800D02*
X54398379Y-76310561D01*
X54398379Y-76310561D02*
X54398379Y-76215323D01*
X54398379Y-76215323D02*
X54445998Y-76120085D01*
X54445998Y-76120085D02*
X54541236Y-76072466D01*
X54541236Y-76072466D02*
X54779331Y-76072466D01*
X54779331Y-76072466D02*
X54874569Y-76024847D01*
X55350760Y-76453419D02*
X55350760Y-75453419D01*
X55445998Y-76072466D02*
X55731712Y-76453419D01*
X55731712Y-75786752D02*
X55350760Y-76167704D01*
X56160284Y-76453419D02*
X56160284Y-75786752D01*
X56160284Y-75881990D02*
X56207903Y-75834371D01*
X56207903Y-75834371D02*
X56303141Y-75786752D01*
X56303141Y-75786752D02*
X56445998Y-75786752D01*
X56445998Y-75786752D02*
X56541236Y-75834371D01*
X56541236Y-75834371D02*
X56588855Y-75929609D01*
X56588855Y-75929609D02*
X56588855Y-76453419D01*
X56588855Y-75929609D02*
X56636474Y-75834371D01*
X56636474Y-75834371D02*
X56731712Y-75786752D01*
X56731712Y-75786752D02*
X56874569Y-75786752D01*
X56874569Y-75786752D02*
X56969808Y-75834371D01*
X56969808Y-75834371D02*
X57017427Y-75929609D01*
X57017427Y-75929609D02*
X57017427Y-76453419D01*
X57922188Y-76453419D02*
X57922188Y-75929609D01*
X57922188Y-75929609D02*
X57874569Y-75834371D01*
X57874569Y-75834371D02*
X57779331Y-75786752D01*
X57779331Y-75786752D02*
X57588855Y-75786752D01*
X57588855Y-75786752D02*
X57493617Y-75834371D01*
X57922188Y-76405800D02*
X57826950Y-76453419D01*
X57826950Y-76453419D02*
X57588855Y-76453419D01*
X57588855Y-76453419D02*
X57493617Y-76405800D01*
X57493617Y-76405800D02*
X57445998Y-76310561D01*
X57445998Y-76310561D02*
X57445998Y-76215323D01*
X57445998Y-76215323D02*
X57493617Y-76120085D01*
X57493617Y-76120085D02*
X57588855Y-76072466D01*
X57588855Y-76072466D02*
X57826950Y-76072466D01*
X57826950Y-76072466D02*
X57922188Y-76024847D01*
X58541236Y-76453419D02*
X58445998Y-76405800D01*
X58445998Y-76405800D02*
X58398379Y-76310561D01*
X58398379Y-76310561D02*
X58398379Y-75453419D01*
X58922189Y-76453419D02*
X58922189Y-75453419D01*
X58922189Y-75834371D02*
X59017427Y-75786752D01*
X59017427Y-75786752D02*
X59207903Y-75786752D01*
X59207903Y-75786752D02*
X59303141Y-75834371D01*
X59303141Y-75834371D02*
X59350760Y-75881990D01*
X59350760Y-75881990D02*
X59398379Y-75977228D01*
X59398379Y-75977228D02*
X59398379Y-76262942D01*
X59398379Y-76262942D02*
X59350760Y-76358180D01*
X59350760Y-76358180D02*
X59303141Y-76405800D01*
X59303141Y-76405800D02*
X59207903Y-76453419D01*
X59207903Y-76453419D02*
X59017427Y-76453419D01*
X59017427Y-76453419D02*
X58922189Y-76405800D01*
X59826951Y-75786752D02*
X59826951Y-76453419D01*
X59826951Y-75881990D02*
X59874570Y-75834371D01*
X59874570Y-75834371D02*
X59969808Y-75786752D01*
X59969808Y-75786752D02*
X60112665Y-75786752D01*
X60112665Y-75786752D02*
X60207903Y-75834371D01*
X60207903Y-75834371D02*
X60255522Y-75929609D01*
X60255522Y-75929609D02*
X60255522Y-76453419D01*
X61160284Y-76453419D02*
X61160284Y-75929609D01*
X61160284Y-75929609D02*
X61112665Y-75834371D01*
X61112665Y-75834371D02*
X61017427Y-75786752D01*
X61017427Y-75786752D02*
X60826951Y-75786752D01*
X60826951Y-75786752D02*
X60731713Y-75834371D01*
X61160284Y-76405800D02*
X61065046Y-76453419D01*
X61065046Y-76453419D02*
X60826951Y-76453419D01*
X60826951Y-76453419D02*
X60731713Y-76405800D01*
X60731713Y-76405800D02*
X60684094Y-76310561D01*
X60684094Y-76310561D02*
X60684094Y-76215323D01*
X60684094Y-76215323D02*
X60731713Y-76120085D01*
X60731713Y-76120085D02*
X60826951Y-76072466D01*
X60826951Y-76072466D02*
X61065046Y-76072466D01*
X61065046Y-76072466D02*
X61160284Y-76024847D01*
X61541237Y-75786752D02*
X62065046Y-75786752D01*
X62065046Y-75786752D02*
X61541237Y-76453419D01*
X61541237Y-76453419D02*
X62065046Y-76453419D01*
X62445999Y-76453419D02*
X62445999Y-75786752D01*
X62445999Y-75453419D02*
X62398380Y-75501038D01*
X62398380Y-75501038D02*
X62445999Y-75548657D01*
X62445999Y-75548657D02*
X62493618Y-75501038D01*
X62493618Y-75501038D02*
X62445999Y-75453419D01*
X62445999Y-75453419D02*
X62445999Y-75548657D01*
X62922189Y-76453419D02*
X62922189Y-75786752D01*
X62922189Y-75977228D02*
X62969808Y-75881990D01*
X62969808Y-75881990D02*
X63017427Y-75834371D01*
X63017427Y-75834371D02*
X63112665Y-75786752D01*
X63112665Y-75786752D02*
X63207903Y-75786752D01*
D11*
X33808219Y-49521133D02*
X34522504Y-49521133D01*
X34522504Y-49521133D02*
X34665361Y-49568752D01*
X34665361Y-49568752D02*
X34760600Y-49663990D01*
X34760600Y-49663990D02*
X34808219Y-49806847D01*
X34808219Y-49806847D02*
X34808219Y-49902085D01*
X34808219Y-48521133D02*
X34808219Y-49092561D01*
X34808219Y-48806847D02*
X33808219Y-48806847D01*
X33808219Y-48806847D02*
X33951076Y-48902085D01*
X33951076Y-48902085D02*
X34046314Y-48997323D01*
X34046314Y-48997323D02*
X34093933Y-49092561D01*
X42129495Y-45077719D02*
X42129495Y-45887242D01*
X42129495Y-45887242D02*
X42177114Y-45982480D01*
X42177114Y-45982480D02*
X42224733Y-46030100D01*
X42224733Y-46030100D02*
X42319971Y-46077719D01*
X42319971Y-46077719D02*
X42510447Y-46077719D01*
X42510447Y-46077719D02*
X42605685Y-46030100D01*
X42605685Y-46030100D02*
X42653304Y-45982480D01*
X42653304Y-45982480D02*
X42700923Y-45887242D01*
X42700923Y-45887242D02*
X42700923Y-45077719D01*
X43129495Y-45172957D02*
X43177114Y-45125338D01*
X43177114Y-45125338D02*
X43272352Y-45077719D01*
X43272352Y-45077719D02*
X43510447Y-45077719D01*
X43510447Y-45077719D02*
X43605685Y-45125338D01*
X43605685Y-45125338D02*
X43653304Y-45172957D01*
X43653304Y-45172957D02*
X43700923Y-45268195D01*
X43700923Y-45268195D02*
X43700923Y-45363433D01*
X43700923Y-45363433D02*
X43653304Y-45506290D01*
X43653304Y-45506290D02*
X43081876Y-46077719D01*
X43081876Y-46077719D02*
X43700923Y-46077719D01*
X24643019Y-72672533D02*
X25357304Y-72672533D01*
X25357304Y-72672533D02*
X25500161Y-72720152D01*
X25500161Y-72720152D02*
X25595400Y-72815390D01*
X25595400Y-72815390D02*
X25643019Y-72958247D01*
X25643019Y-72958247D02*
X25643019Y-73053485D01*
X24738257Y-72243961D02*
X24690638Y-72196342D01*
X24690638Y-72196342D02*
X24643019Y-72101104D01*
X24643019Y-72101104D02*
X24643019Y-71863009D01*
X24643019Y-71863009D02*
X24690638Y-71767771D01*
X24690638Y-71767771D02*
X24738257Y-71720152D01*
X24738257Y-71720152D02*
X24833495Y-71672533D01*
X24833495Y-71672533D02*
X24928733Y-71672533D01*
X24928733Y-71672533D02*
X25071590Y-71720152D01*
X25071590Y-71720152D02*
X25643019Y-72291580D01*
X25643019Y-72291580D02*
X25643019Y-71672533D01*
X25106333Y-40003619D02*
X24773000Y-39527428D01*
X24534905Y-40003619D02*
X24534905Y-39003619D01*
X24534905Y-39003619D02*
X24915857Y-39003619D01*
X24915857Y-39003619D02*
X25011095Y-39051238D01*
X25011095Y-39051238D02*
X25058714Y-39098857D01*
X25058714Y-39098857D02*
X25106333Y-39194095D01*
X25106333Y-39194095D02*
X25106333Y-39336952D01*
X25106333Y-39336952D02*
X25058714Y-39432190D01*
X25058714Y-39432190D02*
X25011095Y-39479809D01*
X25011095Y-39479809D02*
X24915857Y-39527428D01*
X24915857Y-39527428D02*
X24534905Y-39527428D01*
X26058714Y-40003619D02*
X25487286Y-40003619D01*
X25773000Y-40003619D02*
X25773000Y-39003619D01*
X25773000Y-39003619D02*
X25677762Y-39146476D01*
X25677762Y-39146476D02*
X25582524Y-39241714D01*
X25582524Y-39241714D02*
X25487286Y-39289333D01*
X61468233Y-34753580D02*
X61420614Y-34801200D01*
X61420614Y-34801200D02*
X61277757Y-34848819D01*
X61277757Y-34848819D02*
X61182519Y-34848819D01*
X61182519Y-34848819D02*
X61039662Y-34801200D01*
X61039662Y-34801200D02*
X60944424Y-34705961D01*
X60944424Y-34705961D02*
X60896805Y-34610723D01*
X60896805Y-34610723D02*
X60849186Y-34420247D01*
X60849186Y-34420247D02*
X60849186Y-34277390D01*
X60849186Y-34277390D02*
X60896805Y-34086914D01*
X60896805Y-34086914D02*
X60944424Y-33991676D01*
X60944424Y-33991676D02*
X61039662Y-33896438D01*
X61039662Y-33896438D02*
X61182519Y-33848819D01*
X61182519Y-33848819D02*
X61277757Y-33848819D01*
X61277757Y-33848819D02*
X61420614Y-33896438D01*
X61420614Y-33896438D02*
X61468233Y-33944057D01*
X62420614Y-34848819D02*
X61849186Y-34848819D01*
X62134900Y-34848819D02*
X62134900Y-33848819D01*
X62134900Y-33848819D02*
X62039662Y-33991676D01*
X62039662Y-33991676D02*
X61944424Y-34086914D01*
X61944424Y-34086914D02*
X61849186Y-34134533D01*
X25182533Y-31443819D02*
X24849200Y-30967628D01*
X24611105Y-31443819D02*
X24611105Y-30443819D01*
X24611105Y-30443819D02*
X24992057Y-30443819D01*
X24992057Y-30443819D02*
X25087295Y-30491438D01*
X25087295Y-30491438D02*
X25134914Y-30539057D01*
X25134914Y-30539057D02*
X25182533Y-30634295D01*
X25182533Y-30634295D02*
X25182533Y-30777152D01*
X25182533Y-30777152D02*
X25134914Y-30872390D01*
X25134914Y-30872390D02*
X25087295Y-30920009D01*
X25087295Y-30920009D02*
X24992057Y-30967628D01*
X24992057Y-30967628D02*
X24611105Y-30967628D01*
X25563486Y-30539057D02*
X25611105Y-30491438D01*
X25611105Y-30491438D02*
X25706343Y-30443819D01*
X25706343Y-30443819D02*
X25944438Y-30443819D01*
X25944438Y-30443819D02*
X26039676Y-30491438D01*
X26039676Y-30491438D02*
X26087295Y-30539057D01*
X26087295Y-30539057D02*
X26134914Y-30634295D01*
X26134914Y-30634295D02*
X26134914Y-30729533D01*
X26134914Y-30729533D02*
X26087295Y-30872390D01*
X26087295Y-30872390D02*
X25515867Y-31443819D01*
X25515867Y-31443819D02*
X26134914Y-31443819D01*
X51090533Y-53719619D02*
X50757200Y-53243428D01*
X50519105Y-53719619D02*
X50519105Y-52719619D01*
X50519105Y-52719619D02*
X50900057Y-52719619D01*
X50900057Y-52719619D02*
X50995295Y-52767238D01*
X50995295Y-52767238D02*
X51042914Y-52814857D01*
X51042914Y-52814857D02*
X51090533Y-52910095D01*
X51090533Y-52910095D02*
X51090533Y-53052952D01*
X51090533Y-53052952D02*
X51042914Y-53148190D01*
X51042914Y-53148190D02*
X50995295Y-53195809D01*
X50995295Y-53195809D02*
X50900057Y-53243428D01*
X50900057Y-53243428D02*
X50519105Y-53243428D01*
X51423867Y-52719619D02*
X52090533Y-52719619D01*
X52090533Y-52719619D02*
X51661962Y-53719619D01*
X51144495Y-61840819D02*
X51144495Y-62650342D01*
X51144495Y-62650342D02*
X51192114Y-62745580D01*
X51192114Y-62745580D02*
X51239733Y-62793200D01*
X51239733Y-62793200D02*
X51334971Y-62840819D01*
X51334971Y-62840819D02*
X51525447Y-62840819D01*
X51525447Y-62840819D02*
X51620685Y-62793200D01*
X51620685Y-62793200D02*
X51668304Y-62745580D01*
X51668304Y-62745580D02*
X51715923Y-62650342D01*
X51715923Y-62650342D02*
X51715923Y-61840819D01*
X52715923Y-62840819D02*
X52144495Y-62840819D01*
X52430209Y-62840819D02*
X52430209Y-61840819D01*
X52430209Y-61840819D02*
X52334971Y-61983676D01*
X52334971Y-61983676D02*
X52239733Y-62078914D01*
X52239733Y-62078914D02*
X52144495Y-62126533D01*
X40193933Y-34999819D02*
X39860600Y-34523628D01*
X39622505Y-34999819D02*
X39622505Y-33999819D01*
X39622505Y-33999819D02*
X40003457Y-33999819D01*
X40003457Y-33999819D02*
X40098695Y-34047438D01*
X40098695Y-34047438D02*
X40146314Y-34095057D01*
X40146314Y-34095057D02*
X40193933Y-34190295D01*
X40193933Y-34190295D02*
X40193933Y-34333152D01*
X40193933Y-34333152D02*
X40146314Y-34428390D01*
X40146314Y-34428390D02*
X40098695Y-34476009D01*
X40098695Y-34476009D02*
X40003457Y-34523628D01*
X40003457Y-34523628D02*
X39622505Y-34523628D01*
X41098695Y-33999819D02*
X40622505Y-33999819D01*
X40622505Y-33999819D02*
X40574886Y-34476009D01*
X40574886Y-34476009D02*
X40622505Y-34428390D01*
X40622505Y-34428390D02*
X40717743Y-34380771D01*
X40717743Y-34380771D02*
X40955838Y-34380771D01*
X40955838Y-34380771D02*
X41051076Y-34428390D01*
X41051076Y-34428390D02*
X41098695Y-34476009D01*
X41098695Y-34476009D02*
X41146314Y-34571247D01*
X41146314Y-34571247D02*
X41146314Y-34809342D01*
X41146314Y-34809342D02*
X41098695Y-34904580D01*
X41098695Y-34904580D02*
X41051076Y-34952200D01*
X41051076Y-34952200D02*
X40955838Y-34999819D01*
X40955838Y-34999819D02*
X40717743Y-34999819D01*
X40717743Y-34999819D02*
X40622505Y-34952200D01*
X40622505Y-34952200D02*
X40574886Y-34904580D01*
X50887333Y-28827619D02*
X50554000Y-28351428D01*
X50315905Y-28827619D02*
X50315905Y-27827619D01*
X50315905Y-27827619D02*
X50696857Y-27827619D01*
X50696857Y-27827619D02*
X50792095Y-27875238D01*
X50792095Y-27875238D02*
X50839714Y-27922857D01*
X50839714Y-27922857D02*
X50887333Y-28018095D01*
X50887333Y-28018095D02*
X50887333Y-28160952D01*
X50887333Y-28160952D02*
X50839714Y-28256190D01*
X50839714Y-28256190D02*
X50792095Y-28303809D01*
X50792095Y-28303809D02*
X50696857Y-28351428D01*
X50696857Y-28351428D02*
X50315905Y-28351428D01*
X51220667Y-27827619D02*
X51839714Y-27827619D01*
X51839714Y-27827619D02*
X51506381Y-28208571D01*
X51506381Y-28208571D02*
X51649238Y-28208571D01*
X51649238Y-28208571D02*
X51744476Y-28256190D01*
X51744476Y-28256190D02*
X51792095Y-28303809D01*
X51792095Y-28303809D02*
X51839714Y-28399047D01*
X51839714Y-28399047D02*
X51839714Y-28637142D01*
X51839714Y-28637142D02*
X51792095Y-28732380D01*
X51792095Y-28732380D02*
X51744476Y-28780000D01*
X51744476Y-28780000D02*
X51649238Y-28827619D01*
X51649238Y-28827619D02*
X51363524Y-28827619D01*
X51363524Y-28827619D02*
X51268286Y-28780000D01*
X51268286Y-28780000D02*
X51220667Y-28732380D01*
X43648333Y-69416819D02*
X43315000Y-68940628D01*
X43076905Y-69416819D02*
X43076905Y-68416819D01*
X43076905Y-68416819D02*
X43457857Y-68416819D01*
X43457857Y-68416819D02*
X43553095Y-68464438D01*
X43553095Y-68464438D02*
X43600714Y-68512057D01*
X43600714Y-68512057D02*
X43648333Y-68607295D01*
X43648333Y-68607295D02*
X43648333Y-68750152D01*
X43648333Y-68750152D02*
X43600714Y-68845390D01*
X43600714Y-68845390D02*
X43553095Y-68893009D01*
X43553095Y-68893009D02*
X43457857Y-68940628D01*
X43457857Y-68940628D02*
X43076905Y-68940628D01*
X44505476Y-68750152D02*
X44505476Y-69416819D01*
X44267381Y-68369200D02*
X44029286Y-69083485D01*
X44029286Y-69083485D02*
X44648333Y-69083485D01*
X61529933Y-43229419D02*
X61196600Y-42753228D01*
X60958505Y-43229419D02*
X60958505Y-42229419D01*
X60958505Y-42229419D02*
X61339457Y-42229419D01*
X61339457Y-42229419D02*
X61434695Y-42277038D01*
X61434695Y-42277038D02*
X61482314Y-42324657D01*
X61482314Y-42324657D02*
X61529933Y-42419895D01*
X61529933Y-42419895D02*
X61529933Y-42562752D01*
X61529933Y-42562752D02*
X61482314Y-42657990D01*
X61482314Y-42657990D02*
X61434695Y-42705609D01*
X61434695Y-42705609D02*
X61339457Y-42753228D01*
X61339457Y-42753228D02*
X60958505Y-42753228D01*
X62387076Y-42229419D02*
X62196600Y-42229419D01*
X62196600Y-42229419D02*
X62101362Y-42277038D01*
X62101362Y-42277038D02*
X62053743Y-42324657D01*
X62053743Y-42324657D02*
X61958505Y-42467514D01*
X61958505Y-42467514D02*
X61910886Y-42657990D01*
X61910886Y-42657990D02*
X61910886Y-43038942D01*
X61910886Y-43038942D02*
X61958505Y-43134180D01*
X61958505Y-43134180D02*
X62006124Y-43181800D01*
X62006124Y-43181800D02*
X62101362Y-43229419D01*
X62101362Y-43229419D02*
X62291838Y-43229419D01*
X62291838Y-43229419D02*
X62387076Y-43181800D01*
X62387076Y-43181800D02*
X62434695Y-43134180D01*
X62434695Y-43134180D02*
X62482314Y-43038942D01*
X62482314Y-43038942D02*
X62482314Y-42800847D01*
X62482314Y-42800847D02*
X62434695Y-42705609D01*
X62434695Y-42705609D02*
X62387076Y-42657990D01*
X62387076Y-42657990D02*
X62291838Y-42610371D01*
X62291838Y-42610371D02*
X62101362Y-42610371D01*
X62101362Y-42610371D02*
X62006124Y-42657990D01*
X62006124Y-42657990D02*
X61958505Y-42705609D01*
X61958505Y-42705609D02*
X61910886Y-42800847D01*
D12*
%TO.C,J1*%
X24808400Y-44487800D02*
X24808400Y-53887800D01*
X26708400Y-44487800D02*
X24808400Y-44487800D01*
X26708400Y-53887800D02*
X24808400Y-53887800D01*
X30608400Y-44487800D02*
X28608400Y-44487800D01*
X30608400Y-53887800D02*
X28608400Y-53887800D01*
%TO.C,U2*%
X39281400Y-47492900D02*
X39281400Y-47082900D01*
X39281400Y-54062900D02*
X39281400Y-53412900D01*
X39931400Y-46842900D02*
X39581400Y-46842900D01*
X39931400Y-54062900D02*
X39281400Y-54062900D01*
X45851400Y-46842900D02*
X46501400Y-46842900D01*
X45851400Y-54062900D02*
X46501400Y-54062900D01*
X46501400Y-46842900D02*
X46501400Y-47492900D01*
X46501400Y-54062900D02*
X46501400Y-53412900D01*
X39281400Y-46842900D02*
X39041400Y-46512900D01*
X39521400Y-46512900D01*
X39281400Y-46842900D01*
G36*
X39281400Y-46842900D02*
G01*
X39041400Y-46512900D01*
X39521400Y-46512900D01*
X39281400Y-46842900D01*
G37*
%TO.C,J2*%
X26188200Y-73669200D02*
X26188200Y-72339200D01*
X27518200Y-73669200D02*
X26188200Y-73669200D01*
X28788200Y-71009200D02*
X36468200Y-71009200D01*
X28788200Y-73669200D02*
X28788200Y-71009200D01*
X28788200Y-73669200D02*
X36468200Y-73669200D01*
X36468200Y-73669200D02*
X36468200Y-71009200D01*
%TO.C,R1*%
X25045936Y-40463800D02*
X25500064Y-40463800D01*
X25045936Y-41933800D02*
X25500064Y-41933800D01*
%TO.C,C1*%
X61373648Y-35339000D02*
X61896152Y-35339000D01*
X61373648Y-36809000D02*
X61896152Y-36809000D01*
%TO.C,R2*%
X25122136Y-31904000D02*
X25576264Y-31904000D01*
X25122136Y-33374000D02*
X25576264Y-33374000D01*
%TO.C,R7*%
X51030136Y-54179800D02*
X51484264Y-54179800D01*
X51030136Y-55649800D02*
X51484264Y-55649800D01*
%TO.C,U1*%
X51906400Y-63226000D02*
X49956400Y-63226000D01*
X51906400Y-63226000D02*
X53856400Y-63226000D01*
X51906400Y-68346000D02*
X49956400Y-68346000D01*
X51906400Y-68346000D02*
X53856400Y-68346000D01*
X49206400Y-63321000D02*
X48966400Y-62991000D01*
X49446400Y-62991000D01*
X49206400Y-63321000D01*
G36*
X49206400Y-63321000D02*
G01*
X48966400Y-62991000D01*
X49446400Y-62991000D01*
X49206400Y-63321000D01*
G37*
%TO.C,R5*%
X40133536Y-35460000D02*
X40587664Y-35460000D01*
X40133536Y-36930000D02*
X40587664Y-36930000D01*
%TO.C,R3*%
X50826936Y-29287800D02*
X51281064Y-29287800D01*
X50826936Y-30757800D02*
X51281064Y-30757800D01*
%TO.C,R4*%
X43587936Y-69877000D02*
X44042064Y-69877000D01*
X43587936Y-71347000D02*
X44042064Y-71347000D01*
%TO.C,R6*%
X61469536Y-43689600D02*
X61923664Y-43689600D01*
X61469536Y-45159600D02*
X61923664Y-45159600D01*
%TD*%
M02*
